<svg id="圖層_1" data-name="圖層 1" xmlns="http://www.w3.org/2000/svg" viewBox="0 0 563.64 61.22"><defs><style>.cls-1{opacity:0.7;}.cls-2{fill:#040000;}</style></defs><title>deco04</title><g class="cls-1"><path class="cls-2" d="M180.1,418.56c5.83,2,14.05-1.44,12.75-8.61-1.33-7.34-8.7-6.69-10.47-2.86-2,4.35,1.78,8.65,5.9,6.58,2.86-1-.61,6.28-7.46,3.79a12,12,0,0,1-6.6-5.5c-2.87-5.39-1-12.45,3.43-16.43,5-4.48,12.39-3.89,18.29-1.8a45.17,45.17,0,0,1,5.67,2.34,10.22,10.22,0,0,0-5.75,7.28,7.34,7.34,0,0,0,3.37,7.93,5.8,5.8,0,0,0,7.46-1.3,4.85,4.85,0,0,0-.72-7,3.62,3.62,0,0,0-5.77,3.36,0.23,0.23,0,0,0,.05.12,2.66,2.66,0,0,0,1,1.53,2.28,2.28,0,0,0,3.56-.84,2.33,2.33,0,0,0-1.6-3.16,2.37,2.37,0,0,0-2.51,1.71,2.6,2.6,0,0,1,1.13-2.11,3.68,3.68,0,0,1,3.84.2,3.13,3.13,0,0,1,.9,4.38,4.76,4.76,0,0,1-4.13,2.25,5.34,5.34,0,0,1-4.49-3.65c-2.16-5.89,4.54-9.54,5.2-9.77,3.59,1.89,7.13,4,10.75,5.83-21.4,14.69-2.55,40.6,11.58,32.3a14.68,14.68,0,0,0,5.56,1.7c3.91,0.3,8.69-2,9.63-6.09,0.6-2.64-1-5.88-3.91-6.17-2.08-.21-4.79,1-4.43,3.45,0,0.2.42,1.37,1.34,0.61-1.14-2.34,1.56-3.77,3.39-2,1.52,1.49,1.74,4.34-1.62,6-1.63.83-4.19,0.73-6.74-.17,0.31-.33.61-0.67,0.91-1,4-5,2.36-9.83-.08-12.24-2.23-2.2-5.84-3.16-8.61-1.77,1.95-5.41,6.31-8.16,11.27-8.95a96.61,96.61,0,0,0,13,1.9c0.62,0.28,1.22.58,1.8,0.91,0.33,0.19.65,0.39,1,.6,8.15,6.11,9.65,18.53,6.31,27.93a25.27,25.27,0,0,1-1.91,4c-2.54,4.09-6.57,7.26-11.61,7.38a9.09,9.09,0,0,1-6.78-2.5,5.37,5.37,0,0,1-1.32-5.27,3.85,3.85,0,0,1,3.11-2.61,3,3,0,0,1,3.18,2.26,2.54,2.54,0,0,0-4.31,2.67,2.81,2.81,0,0,0,3,1.18,3.32,3.32,0,0,0,2.33-2.32,4,4,0,0,0-2.35-4.57,4.64,4.64,0,0,0-5.1,1.34c-1.95,2.27-1.39,5.75.33,8,4.35,5.6,13.18,2.69,17.47-1.37a20.91,20.91,0,0,0,5.55-9.8,60.57,60.57,0,0,0,1.51-6,22.66,22.66,0,0,0,4.25,7.82,30.83,30.83,0,0,0,12.75,8.62,33.06,33.06,0,0,0,11.82,2,28.82,28.82,0,0,0,5.87-.68,26.08,26.08,0,0,0,2.82-.8c0.43-.15,2.24-1.19,2.59-1.06,0,0,0-.58,0-0.73,0,0.15,0,.73,0,0.73,0.35-.13,2.16.92,2.59,1.06a26.08,26.08,0,0,0,2.82.8,28.82,28.82,0,0,0,5.87.68,33.06,33.06,0,0,0,11.82-2,30.83,30.83,0,0,0,12.75-8.62,22.66,22.66,0,0,0,4.25-7.82,60.66,60.66,0,0,0,1.51,6,20.91,20.91,0,0,0,5.55,9.8c4.29,4.06,13.12,7,17.47,1.37,1.73-2.23,2.28-5.7.33-8a4.64,4.64,0,0,0-5.1-1.34,4,4,0,0,0-2.35,4.57,3.32,3.32,0,0,0,2.33,2.32,2.81,2.81,0,0,0,3-1.18A2.54,2.54,0,0,0,356,443.1a3,3,0,0,1,3.18-2.26,3.85,3.85,0,0,1,3.11,2.61,5.37,5.37,0,0,1-1.32,5.27,9.09,9.09,0,0,1-6.78,2.5c-5-.12-9.07-3.28-11.61-7.38a25.27,25.27,0,0,1-1.91-4c-3.34-9.4-1.84-21.82,6.31-27.93,0.31-.21.63-0.41,1-0.6,0.58-.33,1.18-0.63,1.8-0.91a96.6,96.6,0,0,0,13-1.9c5,0.79,9.33,3.54,11.27,8.95-2.77-1.39-6.38-.43-8.61,1.77-2.44,2.42-4.1,7.26-.08,12.24,0.3,0.37.6,0.71,0.91,1-2.56.9-5.11,1-6.74,0.17-3.36-1.7-3.14-4.55-1.62-6,1.82-1.8,4.52-.37,3.39,2,0.92,0.76,1.31-.41,1.34-0.61,0.36-2.48-2.35-3.66-4.43-3.45-2.88.29-4.52,3.52-3.91,6.17,0.94,4.1,5.72,6.39,9.63,6.09a14.68,14.68,0,0,0,5.56-1.7c14.13,8.3,33-17.61,11.58-32.3,3.62-1.8,7.16-3.94,10.75-5.83,0.66,0.23,7.36,3.88,5.2,9.77a5.34,5.34,0,0,1-4.49,3.65,4.76,4.76,0,0,1-4.13-2.25,3.13,3.13,0,0,1,.9-4.38,3.68,3.68,0,0,1,3.84-.2,2.6,2.6,0,0,1,1.13,2.11,2.37,2.37,0,0,0-2.51-1.71,2.33,2.33,0,0,0-1.6,3.16,2.28,2.28,0,0,0,3.56.84,2.66,2.66,0,0,0,1-1.53,0.23,0.23,0,0,0,.05-0.12A3.62,3.62,0,0,0,389,403a4.85,4.85,0,0,0-.72,7,5.8,5.8,0,0,0,7.46,1.3,7.34,7.34,0,0,0,3.37-7.93,10.22,10.22,0,0,0-5.75-7.28,45.17,45.17,0,0,1,5.67-2.34c5.9-2.09,13.3-2.69,18.29,1.8,4.42,4,6.29,11,3.43,16.43a10.67,10.67,0,0,1-6.6,5.5c-7.76,1.95-8.49-3.79-8.49-3.79,4.11,2.07,8.93-2.23,6.94-6.58-1.76-3.84-9.13-4.48-10.47,2.86-1.31,7.17,6.92,10.64,12.75,8.61a14,14,0,0,0,8.85-14.78,14.5,14.5,0,0,0-9-11.18c-5-2.08-10.27-1.37-15.36-.15a37.68,37.68,0,0,0-7.8,2.79,50.5,50.5,0,0,0-5-1.13A63,63,0,0,0,353,396.18a61.23,61.23,0,0,0-8.46,3.53l-0.45.23-0.53.27a64.06,64.06,0,0,0-10.6,6.94,0.25,0.25,0,0,0-.11.07l-0.06.06-0.51.41c-6.23-7.09-16.1-9.46-22.25-7.85a10.32,10.32,0,0,0-1.11.36L304.23,398c1.43,0.87,2.83,1.68,4.22,2.44a7.77,7.77,0,0,0-4.88,6.39,20.83,20.83,0,0,0-6.09,2,20.83,20.83,0,0,0-6.09-2,7.77,7.77,0,0,0-4.88-6.39c1.39-.77,2.79-1.58,4.22-2.44L286,400.21a10.32,10.32,0,0,0-1.11-.36c-6.15-1.61-16,.76-22.25,7.85l-0.51-.41-0.06-.06a0.25,0.25,0,0,0-.11-0.07,64.07,64.07,0,0,0-10.6-6.94l-0.53-.27-0.45-.23a61.23,61.23,0,0,0-8.46-3.53,63,63,0,0,0-33.58-2.09,50.5,50.5,0,0,0-5,1.13,37.68,37.68,0,0,0-7.8-2.79c-5.1-1.22-10.37-1.92-15.36.15a14.5,14.5,0,0,0-9,11.18A14,14,0,0,0,180.1,418.56Zm41.54,1c2.18-1.86,5.29-.9,7.16,1.51,2,2.58,2.43,7,0,9.83a14.06,14.06,0,0,1-1.19,1.26c-3.34-1.47-6.48-4.3-7.33-8.22A4.48,4.48,0,0,1,221.64,419.51Zm-3.88-.78c-1.9,7.15,1.75,12.63,6.36,15.61C212,439,196.88,417,216.69,404.14a37.68,37.68,0,0,0,4.78,1.73q3.55,1,6.93,1.81A15.88,15.88,0,0,0,217.76,418.73Zm29.4-9.28-0.3-.17a23.81,23.81,0,0,0-16.73-2.11,74.84,74.84,0,0,1-8.75-2.53c-1.12-.4-2.22-0.86-3.32-1.35l0.7-.41c12.78-7.07,31.37-3.38,42.36,5.83l0.09,0.07a64.5,64.5,0,0,1-7.53.71C251.81,409.57,249.6,409.56,247.16,409.45Zm10,10.93a8.12,8.12,0,0,0-.35-1.12,20.52,20.52,0,0,0-7.73-8.65,65.29,65.29,0,0,0,12-.86,23,23,0,0,0-3.61,8.56C257.32,419,257.22,419.68,257.14,420.37Zm81-1.12a8.09,8.09,0,0,0-.35,1.12c-0.08-.69-0.18-1.38-0.32-2.06a23,23,0,0,0-3.61-8.56,65.29,65.29,0,0,0,12,.86A20.52,20.52,0,0,0,338.15,419.25Zm9.92-10-0.3.17c-2.43.11-4.64,0.12-6.52,0.05a64.49,64.49,0,0,1-7.53-.71l0.08-.07c11-9.21,29.58-12.9,42.36-5.83l0.7,0.41c-1.1.49-2.2,0.94-3.32,1.35a74.84,74.84,0,0,1-8.75,2.53A23.81,23.81,0,0,0,348.08,409.28Zm19.24,22.83a14.07,14.07,0,0,1-1.19-1.26c-2.41-2.86-2-7.26,0-9.83,1.86-2.41,5-3.37,7.16-1.51a4.48,4.48,0,0,1,1.34,4.38C373.79,427.81,370.66,430.64,367.31,432.11Zm3.51,2.23c4.61-3,8.26-8.46,6.36-15.61a15.88,15.88,0,0,0-10.64-11q3.38-.81,6.93-1.81a37.68,37.68,0,0,0,4.78-1.73C398.06,417,383,439,370.82,434.34Zm-28.28-33a64.08,64.08,0,0,1,10.13-4.49q1.65-.57,3.33-1a60.64,60.64,0,0,1,34.13.66c-3.51,1.78-7,3.77-10.43,5.5-0.49-.3-1-0.6-1.53-0.9-13.19-7.26-34-2.4-45.06,6.84A60.5,60.5,0,0,1,342.55,401.32Zm-9.91,8.41a22.78,22.78,0,0,1,4,9.16,25.6,25.6,0,0,1-4.85,20.32c-7.83,9.57-22.47,13.15-33.47,8.58a23.06,23.06,0,0,0,10.86-12.58c6.4-.33,10.92-5.49,12-11.38l0.26,0a1.91,1.91,0,0,0,1.59-3A50.22,50.22,0,0,1,332.64,409.72ZM306.88,417a7.23,7.23,0,0,1,7.63,5.93,6.16,6.16,0,0,1-1.73,5.39,6,6,0,0,1-2.27,1.41l-0.12,0A19.87,19.87,0,0,0,306.88,417Zm3.25,12.8h0a3.88,3.88,0,0,1-2.39-.29c-1.54-.73-2-1.8-1-2.87a2.55,2.55,0,0,0,2-.42,1,1,0,0,0-.42-1.79c-2.57-.55-4,3.18-2.65,5a4.27,4.27,0,0,0,4.36,1.4,18.52,18.52,0,0,1-.62,2.81c-5.28-.06-8.4-2.9-9.53-6.19a8.48,8.48,0,0,1,0-4.66,8.05,8.05,0,0,1,6.66-5.76A19.78,19.78,0,0,1,310.13,429.78Zm21.46-21.36a83.31,83.31,0,0,1-19.93-6.91A21.89,21.89,0,0,1,331.59,408.42Zm-21-6.68,0.24-.06a78.3,78.3,0,0,0,20.66,7.62,49.36,49.36,0,0,0-9.24,10.92,1.88,1.88,0,0,0-.81-0.19h0A13.52,13.52,0,0,0,315,409.3s0-.06,0-0.15a2,2,0,0,0,0-.4,1.49,1.49,0,0,0-2.38-1.37,0.89,0.89,0,0,0-.43.51,20.85,20.85,0,0,0-2.45-.82,14.61,14.61,0,0,0-4.85-.43C305.44,404.63,307.23,402.62,310.6,401.74Zm-5.76,5.31a14.21,14.21,0,0,1,4.62.47,21,21,0,0,1,2.64.93,2,2,0,0,0,0,.29,1.92,1.92,0,0,0,.34,1.1,1,1,0,0,1,.2,1.37,2.77,2.77,0,0,1-1.39.65,6.91,6.91,0,0,1-3.41,0l-0.28-.09A4.08,4.08,0,0,1,304.84,407.05Zm-1.28.12a5.33,5.33,0,0,0,3.92,5c3.48,1.22,6.47-.54,7.29-2.3a12.74,12.74,0,0,1,6,10.27,1.9,1.9,0,0,0-.3,3.41,12.42,12.42,0,0,1-10.78,10,19.54,19.54,0,0,0,.6-2.84,6.33,6.33,0,0,0,1.09-.36c4.42-1.94,5.38-7.61,2.51-11.26a8.24,8.24,0,0,0-7.61-3,24.82,24.82,0,0,0-8.46-7.19A19.49,19.49,0,0,1,303.56,407.18Zm-6.09,1.59c0,0.07,0,.33,0,0.33a24.19,24.19,0,0,1,8.45,7.07,8.61,8.61,0,0,0-4.71,2.45c-5,5.09-2.2,14.64,4.72,16.28a12.77,12.77,0,0,0,2.66.32h0.26a21.79,21.79,0,0,1-11.38,12.21,21.79,21.79,0,0,1-11.38-12.21h0.26a12.77,12.77,0,0,0,2.66-.32c6.92-1.64,9.7-11.19,4.72-16.28a8.61,8.61,0,0,0-4.71-2.45,24.19,24.19,0,0,1,8.45-7.07S297.47,408.83,297.47,408.77Zm-10.84,15.65a1,1,0,0,0-.42,1.79,2.55,2.55,0,0,0,2,.42c1,1.07.59,2.14-1,2.87a3.88,3.88,0,0,1-2.39.29h0a19.78,19.78,0,0,1,3.6-12.77,8.05,8.05,0,0,1,6.66,5.76,8.48,8.48,0,0,1,0,4.66c-1.14,3.29-4.25,6.13-9.53,6.19a18.53,18.53,0,0,1-.62-2.81,4.27,4.27,0,0,0,4.36-1.4C290.63,427.6,289.2,423.87,286.63,424.41Zm-2.09,5.31-0.12,0a6,6,0,0,1-2.27-1.41,6.16,6.16,0,0,1-1.73-5.39,7.23,7.23,0,0,1,7.63-5.93A19.87,19.87,0,0,0,284.54,429.73Zm6.84-22.55a19.49,19.49,0,0,1,5.74,1.75,24.82,24.82,0,0,0-8.46,7.19,8.24,8.24,0,0,0-7.61,3c-2.87,3.66-1.92,9.33,2.51,11.26a6.33,6.33,0,0,0,1.09.36,19.54,19.54,0,0,0,.6,2.84,12.42,12.42,0,0,1-10.78-10,1.9,1.9,0,0,0-.3-3.41,12.74,12.74,0,0,1,6-10.27c0.82,1.76,3.81,3.52,7.29,2.3A5.33,5.33,0,0,0,291.38,407.18Zm-4,4.62-0.28.09a6.91,6.91,0,0,1-3.41,0,2.77,2.77,0,0,1-1.39-.65,1,1,0,0,1,.2-1.37,1.92,1.92,0,0,0,.34-1.1,2,2,0,0,0,0-.29,21,21,0,0,1,2.64-.93,14.21,14.21,0,0,1,4.62-.47A4.08,4.08,0,0,1,287.41,411.8Zm-3.07-10.06c3.37,0.88,5.16,2.88,5.67,4.89a14.61,14.61,0,0,0-4.85.43,20.87,20.87,0,0,0-2.45.82,0.89,0.89,0,0,0-.43-0.51,1.49,1.49,0,0,0-2.38,1.37,2,2,0,0,0,0,.4c0,0.09,0,.15,0,0.15A13.52,13.52,0,0,0,273.53,420h0a1.88,1.88,0,0,0-.81.19,49.36,49.36,0,0,0-9.24-10.92,78.3,78.3,0,0,0,20.66-7.62Zm-1.07-.24a83.31,83.31,0,0,1-19.93,6.91A21.89,21.89,0,0,1,283.28,401.51Zm-21,8.22a50.22,50.22,0,0,1,9.61,11.16,1.91,1.91,0,0,0,1.59,3l0.26,0c1.11,5.88,5.64,11,12,11.38a23.06,23.06,0,0,0,10.86,12.58c-11,4.57-25.65,1-33.47-8.58a25.6,25.6,0,0,1-4.85-20.32A22.78,22.78,0,0,1,262.3,409.72Zm-23.37-13.94q1.68,0.48,3.33,1a64.08,64.08,0,0,1,10.13,4.49,60.5,60.5,0,0,1,9.42,6.57c-11-9.24-31.86-14.1-45.06-6.84-0.53.29-1,.59-1.53,0.9-3.48-1.74-6.92-3.72-10.43-5.5A60.64,60.64,0,0,1,238.93,395.78Z" transform="translate(-15.65 -391.27)"/><polygon class="cls-2" points="406.91 16.75 563.64 18.13 406.91 19.51 406.91 16.75"/><polygon class="cls-2" points="156.73 19.51 0 18.13 156.73 16.75 156.73 19.51"/></g></svg>