<svg id="圖層_1" data-name="圖層 1" xmlns="http://www.w3.org/2000/svg" viewBox="0 0 346.1 112"><defs><style>.cls-1{fill:#1e110a;opacity:0.7;isolation:isolate;}</style></defs><title>deco04</title><g id="圖層_1-2" data-name="圖層 1"><path class="cls-1" d="M469.3,365.9c0.1,4.6.2,9.3,0.2,13.9l0.2,13.9,0.2,27.8c0.1,4.6.1,9.2,0.1,13.9v13.9l0.1,27.8v0.8h-0.8l-27.8-.1H427.6c-4.6,0-9.3,0-13.9-.1l-27.8-.3-13.9-.2c-4.6-.1-9.3-0.1-13.9-0.2,4.6-.1,9.3-0.2,13.9-0.2l13.9-.1,27.8-.2c4.7-.1,9.3-0.1,14-0.1h13.9l27.7-.1-0.8.8,0.1-27.8,0.1-14c0-4.6.1-9.3,0.1-13.9l0.1-27.8,0.2-13.9C469.1,375.1,469.3,370.5,469.3,365.9Z" transform="translate(-124 -365.9)"/><path class="cls-1" d="M451.5,397.1a0.76,0.76,0,0,1-.1-0.4,1.8,1.8,0,0,1,.3-1.2,2.45,2.45,0,0,1,1.7-1.1,2.08,2.08,0,0,1,1.3.3,3.46,3.46,0,0,1,1.1,1,4.71,4.71,0,0,1,.6,1.5,3.72,3.72,0,0,1-.2,1.8,4.74,4.74,0,0,1-2.9,2.8l-1.1.3h-0.5c-0.2,0-.4-0.1-0.6-0.1a6.25,6.25,0,0,1-2.2-1,5.81,5.81,0,0,1-1.6-1.9,7.17,7.17,0,0,1-.7-2.5,6.86,6.86,0,0,1,2-5.1,7.82,7.82,0,0,1,5.4-2.3,6.55,6.55,0,0,1,3.1.5,8,8,0,0,1,2.7,1.8,9.8,9.8,0,0,1,1.8,2.7,1.47,1.47,0,0,0,.2.4l0.1,0.4a2.35,2.35,0,0,1,.2.8l0.2,0.8-0.2.6a14.13,14.13,0,0,1-1.3,6.4,25.89,25.89,0,0,1-3.7,5.6c-1.4,1.7-3,3.3-4.5,5a35.64,35.64,0,0,0-4.1,5.3,39.09,39.09,0,0,0-5.1,12.3,35,35,0,0,0-.8,6.5,33.26,33.26,0,0,0,.3,6.3,19.56,19.56,0,0,0,1.8,5.8,14.13,14.13,0,0,0,3.4,4.6,11.22,11.22,0,0,0,2.2,1.6,9.32,9.32,0,0,0,4.9,1.3c0.2,0,.4-0.1.6-0.1l0.3-.1h0.3c0.2-.1.4-0.1,0.6-0.2a1.69,1.69,0,0,1,.5-0.2,5.12,5.12,0,0,0,2.8-3.3,4.19,4.19,0,0,0-1-3.7c-0.2-.2-0.5-0.4-0.7-0.6a1.14,1.14,0,0,0-.8-0.3,3.22,3.22,0,0,0-1.7.1,2.46,2.46,0,0,0-1.8,2.2,2.17,2.17,0,0,0,1.1,2.1,2.24,2.24,0,0,0,1.8.1,2.18,2.18,0,0,0,.9-0.7,1.47,1.47,0,0,0,.2-0.4h0.2a1.47,1.47,0,0,1-.2.4,1.76,1.76,0,0,1-.9.8,2.33,2.33,0,0,1-2,0,2.56,2.56,0,0,1-1.3-2.3,0.48,0.48,0,0,1,.1-0.4,2.27,2.27,0,0,1,.1-0.4,3,3,0,0,1,.4-0.8,4.18,4.18,0,0,1,1.5-1.1,3.73,3.73,0,0,1,3.9.9,4.81,4.81,0,0,1,1.3,4.4,5.72,5.72,0,0,1-3.2,3.9l-0.6.3a1.42,1.42,0,0,1-.6.2l-0.2.1-0.2.1-0.3.1a1.7,1.7,0,0,1-.7.1,8.63,8.63,0,0,1-2.8-.2,8.08,8.08,0,0,1-2.7-1.1,13.68,13.68,0,0,1-2.4-1.8,16.25,16.25,0,0,1-3.7-4.9,18.83,18.83,0,0,1-1.9-6.1,34,34,0,0,1,.7-13.2,37.37,37.37,0,0,1,5.5-12.4c2.5-3.8,6-6.8,8.9-10.2a22.37,22.37,0,0,0,3.5-5.5,11.85,11.85,0,0,0,1.1-6.2l-0.1-.7-0.2-.7a2.54,2.54,0,0,1-.2-0.7l-0.2-.4c-0.1-.1-0.1-0.2-0.2-0.3a8.07,8.07,0,0,0-1.7-2.4,7.48,7.48,0,0,0-2.4-1.5,8.63,8.63,0,0,0-2.8-.4,7.28,7.28,0,0,0-4.8,2.1,6.27,6.27,0,0,0-1.8,4.5,5,5,0,0,0,2,3.9,4.06,4.06,0,0,0,1.9.8,0.9,0.9,0,0,0,.5.1h0.3a4.4,4.4,0,0,0,1-.2,6.71,6.71,0,0,0,2.5-2.8,3.26,3.26,0,0,0-.2-2.9,2.4,2.4,0,0,0-2-1.2,2.14,2.14,0,0,0-1.5.9,1.43,1.43,0,0,0-.3,1.1,2.27,2.27,0,0,0,.1.4h-0.2Z" transform="translate(-124 -365.9)"/><path class="cls-1" d="M457.8,439.4h0.1c0.1,0,.2-0.1.3-0.1a2.05,2.05,0,0,1,2.2,2,2.44,2.44,0,0,1-1.4,2.3,2.32,2.32,0,0,1-1.6.3,3,3,0,0,1-1.6-.8,3.1,3.1,0,0,1-.9-1.8,4,4,0,0,1,.4-2.1c0.1-.2.2-0.3,0.3-0.5l0.2-.2,0.1-.1,0.2-.2,0.4-.4c0.2-.1.3-0.2,0.5-0.3a3.72,3.72,0,0,1,2.3-.5,5.08,5.08,0,0,1,4.2,2.7,5.75,5.75,0,0,1,.3,5.4c-0.1.2-.2,0.5-0.3,0.7l-0.4.5a2.65,2.65,0,0,1-.5.6,2.36,2.36,0,0,1-.5.5,6.14,6.14,0,0,1-2.6,1.5c-3.9,1.3-8.5-.5-11.1-3.8a17.08,17.08,0,0,1-2.9-5.7,18,18,0,0,1-.6-3.2,30.13,30.13,0,0,1,.7-9.9,28,28,0,0,1,2.3-6.3,19.67,19.67,0,0,1,4.2-5.3,13,13,0,0,1,6.2-2.8,10.75,10.75,0,0,1,6.6,1.2,9,9,0,0,1,4.2,5V419l0.1,0.2a2.2,2.2,0,0,1,.1.8,8.6,8.6,0,0,1,.1,1.6,10.76,10.76,0,0,1-.7,3.1,8.4,8.4,0,0,1-4.3,4.4,8.8,8.8,0,0,1-1.5.5,2,2,0,0,1-.7.1c-0.3,0-.5.1-0.7,0.1a7.17,7.17,0,0,1-2.9-.6,7.64,7.64,0,0,1-2.3-1.7,0.53,0.53,0,0,1-.2-0.3l-0.2-.3c-0.1-.2-0.3-0.4-0.4-0.6a6.47,6.47,0,0,1-.6-3.9,6.71,6.71,0,0,1,1-2.3,5.22,5.22,0,0,1,4-2,4.31,4.31,0,0,1,3.6,1.7,3,3,0,0,1,.2,3.3,2.77,2.77,0,0,1-2.3,1.3,2.09,2.09,0,0,1-1.6-1.1,1.72,1.72,0,0,1-.2-1.2,2.27,2.27,0,0,1,.1-0.4l0.1,0.1a0.37,0.37,0,0,0-.1.3,1.55,1.55,0,0,0,.3,1.1,2,2,0,0,0,1.5.9,2.4,2.4,0,0,0,2-1.2,2.82,2.82,0,0,0-.3-2.8,3.34,3.34,0,0,0-3.1-1.3,4.6,4.6,0,0,0-4.3,4.9,4.25,4.25,0,0,0,.2,1.1c0.1,0.4.3,0.7,0.4,1.1,0.1,0.2.2,0.3,0.3,0.5l0.2,0.1a0.38,0.38,0,0,0,.2.2,4.83,4.83,0,0,0,2,1.4,6.87,6.87,0,0,0,2.4.5h0.6c0.2,0,.4-0.1.6-0.1a5.64,5.64,0,0,0,1.2-.4,6.9,6.9,0,0,0,3.7-3.8,6.39,6.39,0,0,0,.6-2.8,6.15,6.15,0,0,0-.1-1.4c0-.3-0.1-0.5-0.1-0.7l-0.1-.2a0.35,0.35,0,0,1-.1-0.2l-0.1-.4a7.54,7.54,0,0,0-3.7-4.5,10.33,10.33,0,0,0-6-1.2,12.4,12.4,0,0,0-5.8,2.4,14.1,14.1,0,0,0-4.2,4.9,27.82,27.82,0,0,0-3.3,12.6,19.75,19.75,0,0,0,.8,6.4,13.68,13.68,0,0,0,3,5.4,11.41,11.41,0,0,0,1.1,1.1l0.6,0.5,0.6,0.5a11.26,11.26,0,0,0,2.7,1.3,9.38,9.38,0,0,0,5.5.1,6.11,6.11,0,0,0,2.2-1.3,1.76,1.76,0,0,0,.4-0.5c0.2-.3.4-0.5,0.5-0.7l0.6-.5a2.19,2.19,0,0,1,.3-0.5,5,5,0,0,0-.2-4.6,5.72,5.72,0,0,0-1.5-1.6,4.79,4.79,0,0,0-2-.7,3.13,3.13,0,0,0-1.9.4,1.38,1.38,0,0,0-.4.3l-0.3.3-0.2.2-0.1.1-0.1.1c-0.1.1-.2,0.3-0.3,0.4a3.29,3.29,0,0,0-.4,1.7,2.27,2.27,0,0,0,.1.4,3,3,0,0,0,.6,1.1,2.29,2.29,0,0,0,2.7.6,2.42,2.42,0,0,0,1.3-1.9,1.76,1.76,0,0,0-.8-1.5,3.58,3.58,0,0,0-1.1-.4,0.6,0.6,0,0,0-.4.1Z" transform="translate(-124 -365.9)"/><path class="cls-1" d="M463.7,455.7h0.1c0.1,0,.2-0.1.3-0.1a1.27,1.27,0,0,0,.8-0.8,1.73,1.73,0,0,0-.1-1.7,1.56,1.56,0,0,0-.8-0.6c-0.1,0-.2-0.1-0.3-0.1h-0.3a4.33,4.33,0,0,0-.5.1,3.59,3.59,0,0,0-1,.7c-0.1.2-.2,0.3-0.3,0.5a1.27,1.27,0,0,0-.1.6,2.2,2.2,0,0,0,.5,1.2l0.5,0.5,0.1,0.1h0.3l0.2,0.3c0.1,0.1.3,0.1,0.4,0.2a2.29,2.29,0,0,0,1.4.1,6.11,6.11,0,0,0,1.4-.7,7.94,7.94,0,0,0,2-2.7l0.1-.2a0.35,0.35,0,0,1,.1-0.2,1.42,1.42,0,0,1,.2-0.4,2.35,2.35,0,0,0,.2-0.8,9.85,9.85,0,0,0,.2-1.7,9.7,9.7,0,0,0-.1-1.7c-0.1-.5-0.2-1.1-0.3-1.6a14.76,14.76,0,0,0-1.2-2.9,18.82,18.82,0,0,0-1.6-2.3,29.12,29.12,0,0,0-3.1-3c-0.8-.6-1.4-1-1.4-1l0.4,0.2a6.4,6.4,0,0,1,1.1.6,15.39,15.39,0,0,1,3.5,2.8,20.28,20.28,0,0,1,1.8,2.3,12.32,12.32,0,0,1,1.4,3.1,14.87,14.87,0,0,1,.5,3.6,12.25,12.25,0,0,1-.2,1.9,3,3,0,0,0-.2,1,1.47,1.47,0,0,1-.2.4c-0.1.2-.1,0.1-0.1,0.2h-0.3a7.88,7.88,0,0,1-2.3,3.1,3.7,3.7,0,0,1-1.8.8,2.75,2.75,0,0,1-2-.2,1.47,1.47,0,0,1-.4-0.2l-0.2-.1h-0.1l-0.1-.1h-0.1a2.34,2.34,0,0,1-.7-0.7,3.82,3.82,0,0,1-.6-1.6,2.77,2.77,0,0,1,.1-0.9,3,3,0,0,1,.4-0.8,3,3,0,0,1,1.3-.9,2.35,2.35,0,0,1,.8-0.2h0.3a0.2,0.2,0,0,1,.2.1c0.1,0,.2.1,0.3,0.1a2.84,2.84,0,0,1,1,.9,2,2,0,0,1-.1,2,1.45,1.45,0,0,1-1,.7c-0.1,0-.2.1-0.3,0.1h-0.1Z" transform="translate(-124 -365.9)"/><path class="cls-1" d="M461.6,384.3l-0.2.1a0.76,0.76,0,0,1-.4.1,2.83,2.83,0,0,1-1.6-.6,2.51,2.51,0,0,1-.7-2.6,3.66,3.66,0,0,1,2.7-2.4,4.1,4.1,0,0,1,1.1-.1,4.25,4.25,0,0,1,1.1.2,6.7,6.7,0,0,1,2.1,1,6.9,6.9,0,0,1,1.6,1.8,9.17,9.17,0,0,1,.9,2.3,12,12,0,0,1-.1,5l-0.2,1.2-0.3,1.2-0.6,2.4a22.5,22.5,0,0,1-.8,2.4,16,16,0,0,1-1,2.3c-0.4.7-.7,1.5-1.1,2.2a22.47,22.47,0,0,1-1.2,2.1c-0.8,1.3-1.6,2.5-2.5,3.8-0.4.6-.9,1.1-1.3,1.6s-0.9,1-1.3,1.5a18.1,18.1,0,0,1-2.4,2.4c-0.8.7-1.4,1.3-2,1.8a7.57,7.57,0,0,1-1.3,1l-0.5.4-0.1-.1,0.4-.4,1.2-1.2c0.5-.5,1.1-1.1,1.8-1.9s1.4-1.6,2.2-2.6a15.76,15.76,0,0,1,1.2-1.5,10.38,10.38,0,0,0,1.2-1.7c0.7-1.2,1.5-2.4,2.3-3.8,0.4-.7.7-1.3,1.1-2.1a21.4,21.4,0,0,0,1-2.2c0.3-.7.6-1.5,0.9-2.2a15.46,15.46,0,0,0,.7-2.3,19.48,19.48,0,0,0,.6-2.3l0.3-1.2,0.2-1.2a11.4,11.4,0,0,0,.2-4.5,8,8,0,0,0-.7-2,4.43,4.43,0,0,0-1.2-1.5,5.07,5.07,0,0,0-1.6-.9,2.35,2.35,0,0,0-.8-0.2,2.13,2.13,0,0,0-.8,0,3.14,3.14,0,0,0-2.3,1.7,2.22,2.22,0,0,0,.4,2.2,2.48,2.48,0,0,0,1.4.8h0.4Z" transform="translate(-124 -365.9)"/><path class="cls-1" d="M447.1,455.2l0.3,0.3c0.2,0.2.6,0.4,1,.7a14.7,14.7,0,0,0,4,1.9,15,15,0,0,0,2.9.6c1.1,0.1,2.2.1,3.3,0.1s2.3-.1,3.6-0.1a12.17,12.17,0,0,1,3.8.7,6.19,6.19,0,0,1,1.7,1.1,4.35,4.35,0,0,1,1,1.9,3.4,3.4,0,0,1,0,2,5.83,5.83,0,0,1-.8,1.8,3.58,3.58,0,0,1-3.4,1.2,3.48,3.48,0,0,1-1.5-.7,2.48,2.48,0,0,1-.8-1.4,2.23,2.23,0,0,1,1-2.4,1.82,1.82,0,0,1,2,.1,1.64,1.64,0,0,1,.7,1.1c0,0.1.1,0.2,0.1,0.3v0c0-.1-0.1-0.2-0.1-0.3a2.18,2.18,0,0,0-.7-0.9,1.2,1.2,0,0,0-.8-0.2,0.9,0.9,0,0,0-.5.1,1.47,1.47,0,0,0-.4.2,1.92,1.92,0,0,0-.6,2,2.29,2.29,0,0,0,.7,1,1.6,1.6,0,0,0,1,.5,3.09,3.09,0,0,0,2.7-1,3.56,3.56,0,0,0,.6-3,3.69,3.69,0,0,0-.7-1.4,3.39,3.39,0,0,0-1.4-.9,10.32,10.32,0,0,0-3.4-.7h-3.6c-1.1,0-2.3-.1-3.4-0.2a16.66,16.66,0,0,1-3-.8,13.84,13.84,0,0,1-3.9-2.3c-0.4-.3-0.7-0.6-1-0.8Z" transform="translate(-124 -365.9)"/><path class="cls-1" d="M389.5,459.2a0.6,0.6,0,0,0-.4-0.1,2.28,2.28,0,0,0-1.1.3,2.37,2.37,0,0,0-.9,1.5,2.2,2.2,0,0,0,1.2,2,3.3,3.3,0,0,0,2.9.3,4,4,0,0,0,2.3-2.6,3,3,0,0,0,.2-1V459c0-.2-0.1-0.3-0.1-0.5a6.39,6.39,0,0,0-.8-1.9,5.53,5.53,0,0,0-3.9-2,6.61,6.61,0,0,0-4.5,1.8,7.28,7.28,0,0,0-2.1,4.8,6.58,6.58,0,0,0,.4,2.8,6.08,6.08,0,0,0,1.5,2.4,8.07,8.07,0,0,0,2.4,1.7,0.77,0.77,0,0,1,.3.2l0.4,0.2a1,1,0,0,0,.8.4l0.7,0.2,0.7,0.1a12.21,12.21,0,0,0,6.2-1.1,22.37,22.37,0,0,0,5.5-3.5c3.3-2.9,6.4-6.4,10.2-8.9a36.28,36.28,0,0,1,12.4-5.5,50.13,50.13,0,0,1,6.6-1,24.39,24.39,0,0,1,6.6.3,21.64,21.64,0,0,1,6.1,1.9,16.25,16.25,0,0,1,4.9,3.7,10.77,10.77,0,0,1,1.8,2.4,12.75,12.75,0,0,1,1.1,2.7,8.83,8.83,0,0,1,.2,2.8c0,0.2-.1.5-0.1,0.7l-0.1.3-0.1.2-0.1.2c-0.1.2-.1,0.4-0.2,0.6l-0.3.6a5.72,5.72,0,0,1-3.9,3.2,5.09,5.09,0,0,1-4.4-1.3,3.73,3.73,0,0,1-.9-3.9,3.27,3.27,0,0,1,1.1-1.5,2,2,0,0,1,.8-0.4,0.45,0.45,0,0,0,.5,0,2.27,2.27,0,0,0,.4-0.1,2.29,2.29,0,0,1,1.5,4.2c-0.1.1-.3,0.1-0.4,0.2l-0.1-.1c0.1-.1.3-0.1,0.4-0.2a1.6,1.6,0,0,0,.7-0.9,1.92,1.92,0,0,0-.1-1.8,2.36,2.36,0,0,0-2.1-1.1,2.58,2.58,0,0,0-2.2,1.8,3.22,3.22,0,0,0-.1,1.7,6.89,6.89,0,0,0,.3.8,3.74,3.74,0,0,0,.6.7,3.92,3.92,0,0,0,3.7,1,5.12,5.12,0,0,0,3.3-2.8,1.69,1.69,0,0,0,.2-0.5c0.1-.2.1-0.4,0.2-0.6l0.1-.2v-0.2h0.3a1.27,1.27,0,0,0,.1-0.6,7.15,7.15,0,0,0-.3-2.5,10.14,10.14,0,0,0-1-2.4,17.68,17.68,0,0,0-1.6-2.2,15.28,15.28,0,0,0-4.6-3.4,19.89,19.89,0,0,0-5.7-1.8,33.26,33.26,0,0,0-6.3-.3,46.18,46.18,0,0,0-6.5.8,39.09,39.09,0,0,0-12.3,5.1,35.64,35.64,0,0,0-5.3,4.1c-1.6,1.5-3.3,3.1-5,4.5a30.18,30.18,0,0,1-5.6,3.7,12.93,12.93,0,0,1-6.4,1.3l-0.8-.1-0.8-.2c-0.3-.1-0.5-0.1-0.8-0.2l-0.4-.1a1.47,1.47,0,0,1-.4-0.2,8,8,0,0,1-2.7-1.8,7.52,7.52,0,0,1-1.8-2.7,8.08,8.08,0,0,1-.5-3.1,7.82,7.82,0,0,1,2.3-5.4,7,7,0,0,1,5.1-2,5.2,5.2,0,0,1,2.5.7,7.35,7.35,0,0,1,1.9,1.6,5.54,5.54,0,0,1,1,2.2,1.27,1.27,0,0,1,.1.6v0.6a4.51,4.51,0,0,1-.3,1.1,4.89,4.89,0,0,1-2.9,2.9,3.72,3.72,0,0,1-1.8.2,4,4,0,0,1-1.5-.6,5.24,5.24,0,0,1-1-1.1,2.77,2.77,0,0,1-.3-1.3,2.45,2.45,0,0,1,1.1-1.7,2.66,2.66,0,0,1,1.2-.3,3.1,3.1,0,0,1,.7.2h0Z" transform="translate(-124 -365.9)"/><path class="cls-1" d="M431.9,465.5c0,0.1-.1.3-0.1,0.4a1.67,1.67,0,0,0,.4,1.1,1.76,1.76,0,0,0,1.5.8,2.27,2.27,0,0,0,1.3-4,2.38,2.38,0,0,0-1.1-.6,0.6,0.6,0,0,0-.4-0.1,2.54,2.54,0,0,0-1.7.4,1.38,1.38,0,0,0-.4.3l-0.1.1-0.1.1-0.2.2-0.3.3c-0.1.1-.2,0.3-0.3,0.4a4.33,4.33,0,0,0-.4,1.9,4.79,4.79,0,0,0,.7,2,4.57,4.57,0,0,0,1.6,1.5,5.3,5.3,0,0,0,4.6.2,2.19,2.19,0,0,0,.5-0.3l0.7-.3c0.2-.1.3-0.3,0.5-0.4s0.3-.3.5-0.4a5,5,0,0,0,1.3-2.2,9.38,9.38,0,0,0-.1-5.5,8.45,8.45,0,0,0-1.3-2.7l-0.5-.6-0.5-.6a11.41,11.41,0,0,0-1.1-1.1,14.4,14.4,0,0,0-5.4-3,19.75,19.75,0,0,0-6.4-.8,27.49,27.49,0,0,0-12.6,3.3,16.57,16.57,0,0,0-4.9,4.2,11.1,11.1,0,0,0-2.4,5.8,9.31,9.31,0,0,0,1.2,5.9,7.83,7.83,0,0,0,4.5,3.7l0.4,0.1h0.2l0.2,0.2a2,2,0,0,0,.7.1,7.08,7.08,0,0,0,1.4.1,12.66,12.66,0,0,0,2.8-.6,6.9,6.9,0,0,0,3.8-3.7,5.64,5.64,0,0,0,.4-1.2,1.27,1.27,0,0,0,.1-0.6,1.22,1.22,0,0,0,0-.6,6.44,6.44,0,0,0-.5-2.4,6.61,6.61,0,0,0-1.4-2l-0.2-.2-0.3-.2c-0.2-.1-0.3-0.2-0.5-0.3a3.58,3.58,0,0,0-1.1-.4,4.64,4.64,0,0,0-5.8,3,4.25,4.25,0,0,0-.2,1.1,3.52,3.52,0,0,0,1.4,3.1,2.82,2.82,0,0,0,2.8.3,2.27,2.27,0,0,0,1.2-2,2.14,2.14,0,0,0-.9-1.5,2,2,0,0,0-1.1-.3c-0.1,0-.3.1-0.4,0.1l-0.1-.1a0.6,0.6,0,0,1,.4-0.1,1.72,1.72,0,0,1,1.2.2,2.27,2.27,0,0,1,1.1,1.6,2.21,2.21,0,0,1-1.3,2.3,3,3,0,0,1-3.3-.2,4.08,4.08,0,0,1-1.7-3.6,5.56,5.56,0,0,1,2-4,5.48,5.48,0,0,1,2.3-1.1,5.91,5.91,0,0,1,3.9.6,2.09,2.09,0,0,1,.6.4l0.4,0.2a0.53,0.53,0,0,0,.3.2,6.58,6.58,0,0,1,1.7,2.3,7.17,7.17,0,0,1,.6,2.9,1.48,1.48,0,0,1-.1.7c0,0.3-.1.5-0.1,0.7a8.8,8.8,0,0,1-.5,1.5,7.75,7.75,0,0,1-4.4,4.3,8.7,8.7,0,0,1-3.1.7,4.33,4.33,0,0,1-1.6-.1,2.2,2.2,0,0,0-.8-0.1l-0.2-.1a0.35,0.35,0,0,1-.2-0.1l-0.4.1a8.37,8.37,0,0,1-5-4.2,10.75,10.75,0,0,1-1.2-6.6,12.12,12.12,0,0,1,2.8-6.2,14.56,14.56,0,0,1,5.3-4.2,23.83,23.83,0,0,1,6.3-2.3,32.87,32.87,0,0,1,9.9-.7,18,18,0,0,1,3.2.6,17.08,17.08,0,0,1,5.7,2.9,10.68,10.68,0,0,1,3.8,11.1,6.14,6.14,0,0,1-1.5,2.6,2.36,2.36,0,0,1-.5.5,2.65,2.65,0,0,0-.6.5l-0.6.4a1.49,1.49,0,0,1-.7.3,6.36,6.36,0,0,1-5.4-.3,5.55,5.55,0,0,1-2.7-4.2,3.72,3.72,0,0,1,.5-2.3c0.1-.2.2-0.3,0.3-0.5a1.51,1.51,0,0,1,.4-0.4l0.2-.2,0.1-.1,0.1-.1c0.2-.1.3-0.2,0.5-0.3a3.78,3.78,0,0,1,2.1-.4,3.1,3.1,0,0,1,1.8.9,3,3,0,0,1,.8,1.6,2.22,2.22,0,0,1-.3,1.6,2.61,2.61,0,0,1-2.3,1.4,2.26,2.26,0,0,1-2-2.2,0.37,0.37,0,0,1,.1-0.3v-0.1Z" transform="translate(-124 -365.9)"/><path class="cls-1" d="M448.1,471.3v0.1a0.37,0.37,0,0,1-.1.3,1.83,1.83,0,0,1-.7,1,2.74,2.74,0,0,1-2,.1,1.79,1.79,0,0,1-.9-1,0.37,0.37,0,0,1-.1-0.3,0.2,0.2,0,0,0-.1-0.2v-0.2a1.48,1.48,0,0,1,.1-0.7,3,3,0,0,1,.9-1.3,2.47,2.47,0,0,1,.9-0.4,2.77,2.77,0,0,1,.9-0.1,4.92,4.92,0,0,1,1.7.6,2.34,2.34,0,0,1,.7.7l0.1,0.1h0v0.1l0.1,0.2a0.76,0.76,0,0,1,.2.4,3.38,3.38,0,0,1,.2,2,4.17,4.17,0,0,1-.8,1.8,7.88,7.88,0,0,1-3.1,2.3l-0.2.1-0.2.1a1.47,1.47,0,0,0-.4.2,3,3,0,0,1-1,.2,11.08,11.08,0,0,1-1.9.2,14.87,14.87,0,0,1-3.6-.5,12.32,12.32,0,0,1-3.1-1.4,19.93,19.93,0,0,1-2.4-1.9,18.71,18.71,0,0,1-2.8-3.5,6.4,6.4,0,0,1-.6-1.1l-0.2-.4a16,16,0,0,0,1,1.4,14.7,14.7,0,0,0,3,3.1,18.82,18.82,0,0,0,2.3,1.6,14.76,14.76,0,0,0,2.9,1.2,9,9,0,0,0,1.6.3,9.7,9.7,0,0,0,1.7.1,9.85,9.85,0,0,0,1.7-.2c0.3-.1.5-0.1,0.8-0.2a1.47,1.47,0,0,0,.4-0.2l0.2-.1,0.2-.1a6,6,0,0,0,2.7-2,3.09,3.09,0,0,0,.7-1.4,2.52,2.52,0,0,0-.1-1.5c-0.1-.1-0.1-0.3-0.2-0.4l-0.1-.2h0v-0.1l-0.1-.1c0.1,0.2-.1,0-0.3-0.2a2.08,2.08,0,0,0-1.2-.5,1.27,1.27,0,0,0-.6.1,0.85,0.85,0,0,0-.5.3,1.83,1.83,0,0,0-.7,1,1.09,1.09,0,0,0-.1.5v0.2a0.37,0.37,0,0,0,.1.3,1.56,1.56,0,0,0,.6.8,1.53,1.53,0,0,0,1.5.1,2,2,0,0,0,.8-0.8,0.37,0.37,0,0,0,.1-0.3v-0.2Z" transform="translate(-124 -365.9)"/><path class="cls-1" d="M376.6,469.2v-0.6a2.85,2.85,0,0,0-.8-1.4,2.18,2.18,0,0,0-2.2-.4,2.91,2.91,0,0,0-1.7,2.3,1.1,1.1,0,0,0,0,.8,1.88,1.88,0,0,0,.2.8,5.07,5.07,0,0,0,.9,1.6,5.66,5.66,0,0,0,1.5,1.2,11.76,11.76,0,0,0,2,.7,11.4,11.4,0,0,0,4.5-.2h1.1l1.2-.3,2.3-.6c0.8-.2,1.5-0.6,2.3-0.8a14.46,14.46,0,0,0,2.2-.9,21.4,21.4,0,0,0,2.2-1c0.7-.4,1.4-0.7,2.1-1.1,1.3-.7,2.6-1.5,3.8-2.3,0.6-.4,1.1-0.8,1.7-1.2a9.83,9.83,0,0,0,1.5-1.2,32.81,32.81,0,0,0,2.6-2.2c0.7-.7,1.4-1.3,1.9-1.8l1.2-1.2,0.4-.4,0.1,0.1-0.4.5c-0.2.3-.6,0.8-1,1.3a14.59,14.59,0,0,1-1.8,2l-2.4,2.4a17.38,17.38,0,0,0-1.5,1.3,18.26,18.26,0,0,0-1.6,1.3,25,25,0,0,1-3.8,2.5l-2.1,1.2c-0.7.4-1.5,0.7-2.2,1.1s-1.5.6-2.3,1a11.28,11.28,0,0,1-2.4.8,21,21,0,0,1-2.4.6l-1.2.3-1.4.2a12,12,0,0,1-5,.1,9.17,9.17,0,0,1-2.3-.9,6.9,6.9,0,0,1-1.8-1.6,5.12,5.12,0,0,1-1-2.1c-0.1-.4-0.1-0.7-0.2-1.1s0.1-.7.1-1.1a3.66,3.66,0,0,1,2.4-2.7,2.66,2.66,0,0,1,2.6.7,2.27,2.27,0,0,1,.6,1.6,0.48,0.48,0,0,1-.1.4Z" transform="translate(-124 -365.9)"/><path class="cls-1" d="M447.6,454.8l0.3,0.3a4.87,4.87,0,0,1,.8,1A15.4,15.4,0,0,1,451,460a16.66,16.66,0,0,1,.8,3,18.29,18.29,0,0,1,.2,3.3c0,1.2,0,2.4.1,3.6a9.83,9.83,0,0,0,.7,3.4,4.19,4.19,0,0,0,.9,1.4,3.69,3.69,0,0,0,1.4.7,3.31,3.31,0,0,0,3-.6,2.9,2.9,0,0,0,1-2.7,3.34,3.34,0,0,0-.5-1.2,1.83,1.83,0,0,0-1-.7,1.92,1.92,0,0,0-2,.6,1.42,1.42,0,0,0-.2.4,4.33,4.33,0,0,0-.1.5,2.35,2.35,0,0,0,.2.8,1.76,1.76,0,0,0,.9.8,0.37,0.37,0,0,0,.3.1h-0.3a2.59,2.59,0,0,1-1.1-.7,1.82,1.82,0,0,1-.1-2,2.29,2.29,0,0,1,2.4-1,2.85,2.85,0,0,1,1.4.8,3,3,0,0,1,.7,1.5,3.66,3.66,0,0,1-1.2,3.4,3.7,3.7,0,0,1-1.8.8,3.4,3.4,0,0,1-2,0,4,4,0,0,1-1.8-1,6.19,6.19,0,0,1-1.1-1.7,9.86,9.86,0,0,1-.7-3.8c-0.1-1.2.1-2.4,0.1-3.6a18.21,18.21,0,0,0-.1-3.3,13.56,13.56,0,0,0-.6-2.9,14.7,14.7,0,0,0-1.9-4,5.34,5.34,0,0,0-.7-1Z" transform="translate(-124 -365.9)"/><path class="cls-1" d="M236,477.1c-4.6.1-9.3,0.2-13.9,0.2l-13.9.2-27.8.2c-4.6.1-9.2,0.1-13.9,0.1H152.6l-27.8.1H124v-0.8l0.1-27.8V435.4c0-4.6,0-9.3.1-13.9l0.3-27.8,0.1-13.9c0.1-4.6.1-9.3,0.2-13.9,0.1,4.6.2,9.3,0.2,13.9l0.2,13.9,0.2,27.8c0.1,4.7.1,9.3,0.1,14l0.1,13.9,0.1,27.7-0.8-.8,27.9,0.1,13.9,0.1c4.6,0,9.3.1,13.9,0.1l27.8,0.2,13.9,0.2C226.8,476.9,231.4,477.1,236,477.1Z" transform="translate(-124 -365.9)"/><path class="cls-1" d="M204.8,459.3a0.76,0.76,0,0,1,.4-0.1,1.8,1.8,0,0,1,1.2.3,2.45,2.45,0,0,1,1.1,1.7,2.08,2.08,0,0,1-.3,1.3,3.46,3.46,0,0,1-1,1.1,4.71,4.71,0,0,1-1.5.6,3.72,3.72,0,0,1-1.8-.2,4.74,4.74,0,0,1-2.8-2.9c-0.1-.4-0.2-0.7-0.3-1.1v-0.6c0-.2.1-0.4,0.1-0.6a6.25,6.25,0,0,1,1-2.2,5.81,5.81,0,0,1,1.9-1.6,7.17,7.17,0,0,1,2.5-.7,6.86,6.86,0,0,1,5.1,2,7.82,7.82,0,0,1,2.3,5.4,6.55,6.55,0,0,1-.5,3.1,8.27,8.27,0,0,1-4.5,4.5,1.47,1.47,0,0,0-.4.2l-0.4.1a2.35,2.35,0,0,1-.8.2l-0.8.2-0.7.1a14.13,14.13,0,0,1-6.4-1.3,25.89,25.89,0,0,1-5.6-3.7c-1.7-1.4-3.3-3-5-4.5a35.64,35.64,0,0,0-5.3-4.1,39.09,39.09,0,0,0-12.3-5.1,35,35,0,0,0-6.5-.8,33.26,33.26,0,0,0-6.3.3,19.56,19.56,0,0,0-5.8,1.8,14.13,14.13,0,0,0-4.6,3.4,11.22,11.22,0,0,0-1.6,2.2,9.32,9.32,0,0,0-1.3,4.9c0,0.2.1,0.4,0.1,0.6l0.1,0.3v0.3c0.1,0.2.1,0.4,0.2,0.6a1.69,1.69,0,0,1,.2.5,5.12,5.12,0,0,0,3.3,2.8,4.19,4.19,0,0,0,3.7-1c0.2-.2.4-0.5,0.6-0.7a1.33,1.33,0,0,0,.3-0.8,3.22,3.22,0,0,0-.1-1.7,2.46,2.46,0,0,0-2.2-1.8,2.17,2.17,0,0,0-2.1,1.1,2.24,2.24,0,0,0-.1,1.8,2.18,2.18,0,0,0,.7.9,1.47,1.47,0,0,0,.4.2v0.2a1.47,1.47,0,0,1-.4-0.2,1.76,1.76,0,0,1-.8-0.9,2.33,2.33,0,0,1,0-2,2.56,2.56,0,0,1,2.3-1.3,0.48,0.48,0,0,1,.4.1,2.27,2.27,0,0,1,.4.1,3,3,0,0,1,.8.4,4.18,4.18,0,0,1,1.1,1.5,3.73,3.73,0,0,1-.9,3.9,4.81,4.81,0,0,1-4.4,1.3,5.72,5.72,0,0,1-3.9-3.2l-0.3-.6a1.42,1.42,0,0,1-.2-0.6l-0.1-.2-0.1-.2-0.1-.3a1.7,1.7,0,0,1-.1-0.7,8.63,8.63,0,0,1,.2-2.8,8.08,8.08,0,0,1,1.1-2.7,13.68,13.68,0,0,1,1.8-2.4,16.25,16.25,0,0,1,4.9-3.7,18.83,18.83,0,0,1,6.1-1.9,34,34,0,0,1,13.2.7,37.37,37.37,0,0,1,12.4,5.5c3.8,2.5,6.8,6,10.2,8.9a22.37,22.37,0,0,0,5.5,3.5,11.85,11.85,0,0,0,6.2,1.1l0.7-.1,0.7-.2a2.54,2.54,0,0,1,.7-0.2l0.4-.2c0.1-.1.2-0.1,0.3-0.2a8.07,8.07,0,0,0,2.4-1.7,7.48,7.48,0,0,0,1.5-2.4,8.63,8.63,0,0,0,.4-2.8,7.28,7.28,0,0,0-2.1-4.8,6.27,6.27,0,0,0-4.5-1.8,5,5,0,0,0-3.9,2,4.06,4.06,0,0,0-.8,1.9,0.9,0.9,0,0,0-.1.5v0.5a4.4,4.4,0,0,0,.2,1,4.25,4.25,0,0,0,2.3,2.6,3.26,3.26,0,0,0,2.9-.2,2.4,2.4,0,0,0,1.2-2,2.14,2.14,0,0,0-.9-1.5,1.43,1.43,0,0,0-1.1-.3,2.27,2.27,0,0,0-.4.1v-0.7h0.6Z" transform="translate(-124 -365.9)"/><path class="cls-1" d="M162.5,465.6v0.2c0,0.1.1,0.2,0.1,0.3a2.05,2.05,0,0,1-2,2.2,2.44,2.44,0,0,1-2.3-1.4,2.32,2.32,0,0,1-.3-1.6,3.46,3.46,0,0,1,.8-1.6,3.1,3.1,0,0,1,1.8-.9,4,4,0,0,1,2.1.4c0.2,0.1.3,0.2,0.5,0.3l0.2,0.2,0.1,0.1,0.2,0.2,0.4,0.4c0.1,0.2.2,0.3,0.3,0.5a3.72,3.72,0,0,1,.5,2.3,5.08,5.08,0,0,1-2.7,4.2,5.75,5.75,0,0,1-5.4.3c-0.2-.1-0.5-0.2-0.7-0.3l-0.6-.4a2.65,2.65,0,0,1-.6-0.5,2.36,2.36,0,0,1-.5-0.5,6.14,6.14,0,0,1-1.5-2.6c-1.3-3.9.5-8.5,3.8-11.1a17.08,17.08,0,0,1,5.7-2.9,18,18,0,0,1,3.2-.6,30.13,30.13,0,0,1,9.9.7,28,28,0,0,1,6.3,2.3,19.67,19.67,0,0,1,5.3,4.2,13,13,0,0,1,2.8,6.2,10.09,10.09,0,0,1-1.2,6.6,9,9,0,0,1-5,4.2l-0.4.1c-0.1,0-.1.1-0.2,0.1l-0.2.1a2.2,2.2,0,0,1-.8.1,8.6,8.6,0,0,1-1.6.1,10.76,10.76,0,0,1-3.1-.7,8.4,8.4,0,0,1-4.4-4.3,8.8,8.8,0,0,1-.5-1.5,2,2,0,0,1-.1-0.7c0-.2-0.1-0.5-0.1-0.7a7.17,7.17,0,0,1,.6-2.9,7.64,7.64,0,0,1,1.7-2.3,0.53,0.53,0,0,1,.3-0.2l0.3-.2c0.2-.1.4-0.3,0.6-0.4a6.47,6.47,0,0,1,3.9-.6,6.71,6.71,0,0,1,2.3,1,5.22,5.22,0,0,1,2,4,4.31,4.31,0,0,1-1.7,3.6,3,3,0,0,1-3.3.2,2.77,2.77,0,0,1-1.3-2.3,2.09,2.09,0,0,1,1.1-1.6,1.72,1.72,0,0,1,1.2-.2,2.27,2.27,0,0,1,.4.1l-0.1.1a0.37,0.37,0,0,0-.3-0.1,1.55,1.55,0,0,0-1.1.3,2,2,0,0,0-.9,1.5,2.4,2.4,0,0,0,1.2,2,2.82,2.82,0,0,0,2.8-.3,3.34,3.34,0,0,0,1.3-3.1,4.6,4.6,0,0,0-4.9-4.3,4.25,4.25,0,0,0-1.1.2c-0.4.1-.7,0.3-1.1,0.4-0.2.1-.3,0.2-0.5,0.3l-0.1.2a0.38,0.38,0,0,0-.2.2,4.83,4.83,0,0,0-1.4,2,6.87,6.87,0,0,0-.5,2.4v0.6c0,0.2.1,0.4,0.1,0.6a5.64,5.64,0,0,0,.4,1.2,6.9,6.9,0,0,0,3.8,3.7,6.39,6.39,0,0,0,2.8.6,6.15,6.15,0,0,0,1.4-.1c0.3,0,.5-0.1.7-0.1l0.2-.3a0.35,0.35,0,0,1,.2-0.1l0.4-.1a7.54,7.54,0,0,0,4.5-3.7,10.33,10.33,0,0,0,1.2-6,12.4,12.4,0,0,0-2.4-5.8,14.1,14.1,0,0,0-4.9-4.2,27.82,27.82,0,0,0-12.6-3.3,19.75,19.75,0,0,0-6.4.8,13.68,13.68,0,0,0-5.4,3,11.41,11.41,0,0,0-1.1,1.1l-0.5.6-0.5.6a11.26,11.26,0,0,0-1.3,2.7,9.38,9.38,0,0,0-.1,5.5,6.11,6.11,0,0,0,1.3,2.2,1.76,1.76,0,0,0,.5.4c0.2,0.1.3,0.3,0.5,0.4l0.5,0.6a2.19,2.19,0,0,1,.5.3,5,5,0,0,0,4.6-.2,5.72,5.72,0,0,0,1.6-1.5,4.79,4.79,0,0,0,.7-2,3.13,3.13,0,0,0-.4-1.9,1.38,1.38,0,0,0-.3-0.4l-0.3-.3-0.2-.2-0.1-.1-0.1-.1c-0.1-.1-0.3-0.2-0.4-0.3a3.29,3.29,0,0,0-1.7-.4,2.27,2.27,0,0,0-.4.1,3,3,0,0,0-1.1.6,2.29,2.29,0,0,0-.6,2.7,2.42,2.42,0,0,0,1.9,1.3,1.76,1.76,0,0,0,1.5-.8,3.58,3.58,0,0,0,.4-1.1,0.6,0.6,0,0,0-.1-0.4Z" transform="translate(-124 -365.9)"/><path class="cls-1" d="M146.2,471.5v0.1c0,0.1.1,0.2,0.1,0.3a1.27,1.27,0,0,0,.8.8,1.73,1.73,0,0,0,1.7-.1,1.56,1.56,0,0,0,.6-0.8c0-.1.1-0.2,0.1-0.3v-0.3a4.33,4.33,0,0,0-.1-0.5,3.59,3.59,0,0,0-.7-1c-0.2-.1-0.3-0.2-0.5-0.3a1.27,1.27,0,0,0-.6-0.1,2.2,2.2,0,0,0-1.2.5l-0.5.5-0.1.1v0.3h0l-0.1.2c-0.1.1-.1,0.3-0.2,0.4a2.29,2.29,0,0,0-.1,1.4,6.11,6.11,0,0,0,.7,1.4,7.94,7.94,0,0,0,2.7,2l0.2,0.1a0.35,0.35,0,0,1,.2.1,0.76,0.76,0,0,1,.4.2,2.35,2.35,0,0,0,.8.2,9.85,9.85,0,0,0,1.7.2,9.7,9.7,0,0,0,1.7-.1l1.6-.3a14.76,14.76,0,0,0,2.9-1.2,18.82,18.82,0,0,0,2.3-1.6,29.12,29.12,0,0,0,3-3.1c0.6-.8,1-1.4,1-1.4l-0.2.4a6.4,6.4,0,0,1-.6,1.1,15.39,15.39,0,0,1-2.8,3.5,20.28,20.28,0,0,1-2.3,1.8,12.32,12.32,0,0,1-3.1,1.4,14.87,14.87,0,0,1-3.6.5,12.25,12.25,0,0,1-1.9-.2,3,3,0,0,0-1-.2,1.47,1.47,0,0,1-.4-0.2c-0.2-.1-0.1-0.1-0.2-0.1l-0.2-.1a7.88,7.88,0,0,1-3.1-2.3,3.7,3.7,0,0,1-.8-1.8,2.75,2.75,0,0,1,.2-2,1.47,1.47,0,0,1,.2-0.4l0.1-.2v-0.1h0l0.1-.1,0.1-.1a2.34,2.34,0,0,1,.7-0.7,2.72,2.72,0,0,1,1.7-.6,2.77,2.77,0,0,1,.9.1,3,3,0,0,1,.8.4,3,3,0,0,1,.9,1.3,2,2,0,0,1,.1.7v0.2a0.2,0.2,0,0,1-.1.2c0,0.1-.1.2-0.1,0.3a2.84,2.84,0,0,1-.9,1,2,2,0,0,1-2-.1,1.45,1.45,0,0,1-.7-1c0-.1-0.1-0.2-0.1-0.3l-0.1-.1h0Z" transform="translate(-124 -365.9)"/><path class="cls-1" d="M217.6,469.4l-0.1-.2a0.76,0.76,0,0,1-.1-0.4,2.83,2.83,0,0,1,.6-1.6,2.51,2.51,0,0,1,2.6-.7,3.66,3.66,0,0,1,2.4,2.7,4.1,4.1,0,0,1,.1,1.1,4.25,4.25,0,0,1-.2,1.1,6.7,6.7,0,0,1-1,2.1,5.48,5.48,0,0,1-1.8,1.6,9.17,9.17,0,0,1-2.3.9,12,12,0,0,1-5-.1l-1.2-.2-1.2-.3-2.4-.6a22.5,22.5,0,0,1-2.4-.8,16,16,0,0,1-2.3-1c-0.7-.4-1.5-0.7-2.2-1.1a22.47,22.47,0,0,1-2.1-1.2c-1.3-.8-2.5-1.6-3.8-2.5-0.6-.4-1.1-0.9-1.6-1.3s-1-.9-1.5-1.3a18.1,18.1,0,0,1-2.4-2.4c-0.7-.8-1.3-1.4-1.8-2a7.58,7.58,0,0,1-1-1.3l-0.4-.5,0.1-.1,0.4,0.4,1.2,1.2c0.5,0.5,1.1,1.1,1.9,1.8s1.6,1.4,2.6,2.2a15.76,15.76,0,0,1,1.5,1.2c0.5,0.4,1.1.8,1.7,1.2,1.2,0.7,2.4,1.5,3.8,2.3,0.7,0.4,1.3.7,2.1,1.1s1.4,0.7,2.2,1,1.5,0.6,2.2.9a15.46,15.46,0,0,0,2.3.7,19.48,19.48,0,0,0,2.3.6l1.2,0.3,1.2,0.2a11.4,11.4,0,0,0,4.5.2,8,8,0,0,0,2-.7,4.43,4.43,0,0,0,1.5-1.2,5.07,5.07,0,0,0,.9-1.6,2.35,2.35,0,0,0,.2-0.8,2.13,2.13,0,0,0,0-.8,3.14,3.14,0,0,0-1.7-2.3,2.22,2.22,0,0,0-2.2.4,2.48,2.48,0,0,0-.8,1.4v0.4h0Z" transform="translate(-124 -365.9)"/><path class="cls-1" d="M146.7,454.9l-0.3.3c-0.2.2-.4,0.6-0.7,1a14.7,14.7,0,0,0-1.9,4,15,15,0,0,0-.6,2.9c-0.1,1.1-.1,2.2-0.1,3.3s0.1,2.3.1,3.6a12.17,12.17,0,0,1-.7,3.8,6.19,6.19,0,0,1-1.1,1.7,4.35,4.35,0,0,1-1.9,1,3.4,3.4,0,0,1-2,0,5.83,5.83,0,0,1-1.8-.8,3.58,3.58,0,0,1-1.2-3.4,3.48,3.48,0,0,1,.7-1.5,2.48,2.48,0,0,1,1.4-.8,2.23,2.23,0,0,1,2.4,1,1.82,1.82,0,0,1-.1,2,1.64,1.64,0,0,1-1.1.7c-0.1,0-.2.1-0.3,0.1h0c0.1,0,.2-0.1.3-0.1a2.18,2.18,0,0,0,.9-0.7,1.2,1.2,0,0,0,.2-0.8,0.9,0.9,0,0,0-.1-0.5,1.47,1.47,0,0,0-.2-0.4,1.92,1.92,0,0,0-2-.6,2.29,2.29,0,0,0-1,.7,2.08,2.08,0,0,0-.5,1.2,3.09,3.09,0,0,0,1,2.7,3.56,3.56,0,0,0,3,.6,3.69,3.69,0,0,0,1.4-.7,3.39,3.39,0,0,0,.9-1.4,10.32,10.32,0,0,0,.7-3.4c0-1.5,0-2.6,0-3.8s0.1-2.3.2-3.4a16.66,16.66,0,0,1,.8-3,13.84,13.84,0,0,1,2.3-3.9c0.3-.4.6-0.7,0.8-1Z" transform="translate(-124 -365.9)"/><path class="cls-1" d="M142.7,397.3a0.6,0.6,0,0,0,.1-0.4,2.28,2.28,0,0,0-.3-1.1,2.37,2.37,0,0,0-1.5-.9,2.2,2.2,0,0,0-2,1.2,3.3,3.3,0,0,0-.3,2.9,4,4,0,0,0,2.6,2.3,3,3,0,0,0,1,.2h0.6c0.2,0,.3-0.1.5-0.1a6.39,6.39,0,0,0,1.9-.8,5.53,5.53,0,0,0,2-3.9,6.61,6.61,0,0,0-1.8-4.5,7.28,7.28,0,0,0-4.8-2.1,6.58,6.58,0,0,0-2.8.4,6.08,6.08,0,0,0-2.4,1.5,8.07,8.07,0,0,0-1.7,2.4,0.77,0.77,0,0,1-.2.3l-0.2.4a2.54,2.54,0,0,0-.2.7l-0.2.7-0.1.7a12.21,12.21,0,0,0,1.1,6.2,22.37,22.37,0,0,0,3.5,5.5c2.9,3.3,6.4,6.4,8.9,10.2a36.28,36.28,0,0,1,5.5,12.4,50.13,50.13,0,0,1,1,6.6,24.39,24.39,0,0,1-.3,6.6,21.64,21.64,0,0,1-1.9,6.1,16.25,16.25,0,0,1-3.7,4.9,10.77,10.77,0,0,1-2.4,1.8,12.75,12.75,0,0,1-2.7,1.1,8.83,8.83,0,0,1-2.8.2c-0.2,0-.5-0.1-0.7-0.1l-0.3-.1-0.2-.1-0.2-.1c-0.2-.1-0.4-0.1-0.6-0.2l-0.6-.3a5.72,5.72,0,0,1-3.2-3.9,5.09,5.09,0,0,1,1.3-4.4,3.73,3.73,0,0,1,3.9-.9,3.27,3.27,0,0,1,1.5,1.1,2,2,0,0,1,.4.8,0.6,0.6,0,0,1,.1.4,2.27,2.27,0,0,0,.1.4,2.29,2.29,0,0,1-4.2,1.5c-0.1-.1-0.1-0.3-0.2-0.4l0.1-.1c0.1,0.1.1,0.3,0.2,0.4a1.6,1.6,0,0,0,.9.7,1.92,1.92,0,0,0,1.8-.1,2.36,2.36,0,0,0,1.1-2.1,2.58,2.58,0,0,0-1.8-2.2,3.22,3.22,0,0,0-1.7-.1,6.89,6.89,0,0,0-.8.3,4.35,4.35,0,0,0-.7.6,3.92,3.92,0,0,0-1,3.7,5.12,5.12,0,0,0,2.8,3.3,1.69,1.69,0,0,0,.5.2c0.2,0.1.4,0.1,0.6,0.2l0.2,0.1h0.2l0.3,0.1a1.27,1.27,0,0,0,.6.1,7.15,7.15,0,0,0,2.5-.3,10.14,10.14,0,0,0,2.4-1,17.69,17.69,0,0,0,2.2-1.6,15.28,15.28,0,0,0,3.4-4.6,19.89,19.89,0,0,0,1.8-5.7,33.26,33.26,0,0,0,.3-6.3,46.18,46.18,0,0,0-.8-6.5,39.09,39.09,0,0,0-5.1-12.3,35.64,35.64,0,0,0-4.1-5.3c-1.5-1.6-3.1-3.3-4.5-5a30.18,30.18,0,0,1-3.7-5.6,12.93,12.93,0,0,1-1.3-6.4l0.1-.8,0.2-.8c0.1-.3.1-0.5,0.2-0.8l0.1-.4a1.47,1.47,0,0,1,.2-0.4,8,8,0,0,1,1.8-2.7,7.52,7.52,0,0,1,2.7-1.8,8.08,8.08,0,0,1,3.1-.5,7.82,7.82,0,0,1,5.4,2.3,7,7,0,0,1,2,5.1,5.2,5.2,0,0,1-.7,2.5,7.35,7.35,0,0,1-1.6,1.9,5.54,5.54,0,0,1-2.2,1,1.27,1.27,0,0,1-.6.1h-0.6a4.51,4.51,0,0,1-1.1-.3,4.89,4.89,0,0,1-2.9-2.9,3.72,3.72,0,0,1-.2-1.8,4,4,0,0,1,.6-1.5,5.24,5.24,0,0,1,1.1-1,2.77,2.77,0,0,1,1.3-.3,2.45,2.45,0,0,1,1.7,1.1,2.66,2.66,0,0,1,.3,1.2,3.7,3.7,0,0,0-.8,1.1h0Z" transform="translate(-124 -365.9)"/><path class="cls-1" d="M136.4,439.7c-0.1,0-.3-0.1-0.4-0.1a1.67,1.67,0,0,0-1.1.4,1.76,1.76,0,0,0-.8,1.5,2.27,2.27,0,0,0,4,1.3,2.38,2.38,0,0,0,.6-1.1,0.6,0.6,0,0,0,.1-0.4,2.54,2.54,0,0,0-.4-1.7,1.38,1.38,0,0,0-.3-0.4l-0.1-.1-0.1-.1-0.2-.2-0.3-.3c-0.1-.1-0.3-0.2-0.4-0.3a4.33,4.33,0,0,0-1.9-.4,4.79,4.79,0,0,0-2,.7,4.57,4.57,0,0,0-1.5,1.6,5.3,5.3,0,0,0-.2,4.6,2.19,2.19,0,0,0,.3.5l0.4,0.6c0.1,0.2.3,0.3,0.4,0.5s0.3,0.3.4,0.5a5,5,0,0,0,2.2,1.3,9.38,9.38,0,0,0,5.5-.1,8.45,8.45,0,0,0,2.7-1.3l0.6-.5,0.6-.5a11.41,11.41,0,0,0,1.1-1.1,14.4,14.4,0,0,0,3-5.4,19.75,19.75,0,0,0,.8-6.4,27.49,27.49,0,0,0-3.3-12.6,16.57,16.57,0,0,0-4.2-4.9,11.1,11.1,0,0,0-5.8-2.4,9.31,9.31,0,0,0-5.9,1.2,7.83,7.83,0,0,0-3.7,4.5l-0.1.4v0.2l-0.1.2a2,2,0,0,0-.1.7,7.08,7.08,0,0,0-.1,1.4,12.66,12.66,0,0,0,.6,2.8,6.9,6.9,0,0,0,3.7,3.8,5.64,5.64,0,0,0,1.2.4,1.27,1.27,0,0,0,.6.1,1.22,1.22,0,0,0,.6,0,6.44,6.44,0,0,0,2.4-.5,6.61,6.61,0,0,0,2-1.4l0.2-.2,0.2-.3c0.1-.2.2-0.3,0.3-0.5a3.58,3.58,0,0,0,.4-1.1,4.64,4.64,0,0,0-3-5.8,4.25,4.25,0,0,0-1.1-.2,3.52,3.52,0,0,0-3.1,1.4,2.82,2.82,0,0,0-.3,2.8,2.27,2.27,0,0,0,2,1.2,2.14,2.14,0,0,0,1.5-.9,2,2,0,0,0,.3-1.1c0-.1-0.1-0.3-0.1-0.4l0.1-.1a0.6,0.6,0,0,1,.1.4,1.72,1.72,0,0,1-.2,1.2,2.27,2.27,0,0,1-1.6,1.1,2.21,2.21,0,0,1-2.3-1.3,3,3,0,0,1,.2-3.3,4.08,4.08,0,0,1,3.6-1.7,5.56,5.56,0,0,1,4,2,5.48,5.48,0,0,1,1.1,2.3,5.91,5.91,0,0,1-.6,3.9,2.09,2.09,0,0,1-.4.6l-0.2.3a0.53,0.53,0,0,0-.2.3,6.58,6.58,0,0,1-2.3,1.7,7.17,7.17,0,0,1-2.9.6,1.48,1.48,0,0,1-.7-0.1c-0.3,0-.5-0.1-0.7-0.1a8.8,8.8,0,0,1-1.5-.5,7.75,7.75,0,0,1-4.3-4.4,8.7,8.7,0,0,1-.7-3.1,4.33,4.33,0,0,1,.1-1.6,2.2,2.2,0,0,0,.1-0.8l0.1-.2a0.35,0.35,0,0,1,.1-0.2l0.1-.4a8.37,8.37,0,0,1,4.2-5,10.75,10.75,0,0,1,6.6-1.2,12.12,12.12,0,0,1,6.2,2.8,14.56,14.56,0,0,1,4.2,5.3,23.83,23.83,0,0,1,2.3,6.3,32.87,32.87,0,0,1,.7,9.9,18,18,0,0,1-.6,3.2,17.08,17.08,0,0,1-2.9,5.7,10.68,10.68,0,0,1-11.1,3.8,6.14,6.14,0,0,1-2.6-1.5,2.36,2.36,0,0,1-.5-0.5c-0.2-.2-0.3-0.4-0.5-0.6l-0.4-.6a1.49,1.49,0,0,1-.3-0.7,6.36,6.36,0,0,1,.3-5.4,5.55,5.55,0,0,1,4.2-2.7,3.72,3.72,0,0,1,2.3.5c0.2,0.1.3,0.2,0.5,0.3a1.51,1.51,0,0,1,.4.4l0.2,0.2,0.1,0.1,0.1,0.1c0.1,0.2.2,0.3,0.3,0.5a3.78,3.78,0,0,1,.4,2.1,3.1,3.1,0,0,1-.9,1.8,3,3,0,0,1-1.6.8,2.22,2.22,0,0,1-1.6-.3,2.61,2.61,0,0,1-1.4-2.3,2.26,2.26,0,0,1,2.2-2,0.37,0.37,0,0,1,.3.1h0.1v0.4h-0.3Z" transform="translate(-124 -365.9)"/><path class="cls-1" d="M130.6,455.9h-0.1a0.37,0.37,0,0,1-.3-0.1,1.83,1.83,0,0,1-1-.7,2.74,2.74,0,0,1-.1-2,1.79,1.79,0,0,1,1-.9,0.37,0.37,0,0,1,.3-0.1,0.2,0.2,0,0,0,.2-0.1h0.2a1.48,1.48,0,0,1,.7.1,3,3,0,0,1,1.3.9,2,2,0,0,1,.4.8,2.77,2.77,0,0,1,.1.9,4.92,4.92,0,0,1-.6,1.7,2.34,2.34,0,0,1-.7.7l-0.1.1h-0.2l-0.2.1a0.76,0.76,0,0,1-.4.2,3.38,3.38,0,0,1-2,.2,4.17,4.17,0,0,1-1.8-.8,7.88,7.88,0,0,1-2.3-3.1l-0.1-.2-0.1-.2a1.47,1.47,0,0,0-.2-0.4,3,3,0,0,1-.2-1,11.08,11.08,0,0,1-.2-1.9,14.87,14.87,0,0,1,.5-3.6,12.32,12.32,0,0,1,1.4-3.1A19.93,19.93,0,0,1,128,441a18.71,18.71,0,0,1,3.5-2.8,6.4,6.4,0,0,1,1.1-.6l0.4-.2a16,16,0,0,0-1.4,1,14.7,14.7,0,0,0-3.1,3,18.82,18.82,0,0,0-1.6,2.3,14.76,14.76,0,0,0-1.2,2.9,9,9,0,0,0-.3,1.6,9.7,9.7,0,0,0-.1,1.7,9.85,9.85,0,0,0,.2,1.7c0.1,0.3.1,0.5,0.2,0.8a1.47,1.47,0,0,0,.2.4L126,453l0.1,0.2a6,6,0,0,0,2,2.7,3.09,3.09,0,0,0,1.4.7,2.52,2.52,0,0,0,1.5-.1c0.1-.1.3-0.1,0.4-0.2l0.2-.1h0.1l0.1-.1a1.2,1.2,0,0,0,.5-0.5,2.08,2.08,0,0,0,.5-1.2,1.27,1.27,0,0,0-.1-0.6,0.85,0.85,0,0,0-.3-0.5,1.83,1.83,0,0,0-1-.7,1.09,1.09,0,0,0-.5-0.1h-0.3a0.37,0.37,0,0,0-.3.1,1.56,1.56,0,0,0-.8.6,1.74,1.74,0,0,0,.7,2.5,0.37,0.37,0,0,0,.3.1Z" transform="translate(-124 -365.9)"/><path class="cls-1" d="M132.7,384.4h0.6a2.85,2.85,0,0,0,1.4-.8,2.18,2.18,0,0,0,.4-2.2,2.91,2.91,0,0,0-2.3-1.7,1.1,1.1,0,0,0-.8,0,1.88,1.88,0,0,0-.8.2,5.07,5.07,0,0,0-1.6.9,5.67,5.67,0,0,0-1.2,1.5,11.77,11.77,0,0,0-.7,2,11.39,11.39,0,0,0,.2,4.5l0.2,1.2,0.3,1.2c0.2,0.8.4,1.5,0.6,2.3s0.5,1.5.7,2.3a14.46,14.46,0,0,0,.9,2.2,21.4,21.4,0,0,0,1,2.2c0.4,0.7.7,1.4,1.1,2.1,0.7,1.3,1.5,2.6,2.3,3.8,0.4,0.6.8,1.1,1.2,1.7a9.83,9.83,0,0,0,1.2,1.5,32.8,32.8,0,0,0,2.2,2.6c0.7,0.7,1.3,1.4,1.8,1.9l1.2,1.2,0.4,0.4-0.1.1-0.5-.4c-0.3-.2-0.8-0.6-1.3-1a14.59,14.59,0,0,1-2-1.8l-2.4-2.4a17.38,17.38,0,0,0-1.3-1.5c-0.5-.5-0.8-1.1-1.3-1.6a25,25,0,0,1-2.5-3.8l-1.2-2.1c-0.4-.7-0.7-1.5-1.1-2.2s-0.6-1.5-1-2.3a22.5,22.5,0,0,1-.8-2.4,21.05,21.05,0,0,1-.6-2.4l-0.3-1.2-0.2-1.2a12,12,0,0,1-.1-5,9.17,9.17,0,0,1,.9-2.3,6.9,6.9,0,0,1,1.6-1.8,5.12,5.12,0,0,1,2.1-1c0.4-.1.7-0.1,1.1-0.2s0.7,0.1,1.1.1a3.66,3.66,0,0,1,2.7,2.4,2.66,2.66,0,0,1-.7,2.6,2.27,2.27,0,0,1-1.6.6,0.48,0.48,0,0,1-.4-0.1Z" transform="translate(-124 -365.9)"/><path class="cls-1" d="M147.1,455.4l-0.3.3a4.87,4.87,0,0,1-1,.8,15.4,15.4,0,0,1-3.9,2.3,16.66,16.66,0,0,1-3,.8,18.29,18.29,0,0,1-3.3.2c-1.2,0-2.4,0-3.6.1a9.83,9.83,0,0,0-3.4.7,4.19,4.19,0,0,0-1.4.9,2.35,2.35,0,0,0-.7,1.4,3.25,3.25,0,0,0,.6,3,2.9,2.9,0,0,0,2.7,1,3.34,3.34,0,0,0,1.2-.5,1.83,1.83,0,0,0,.7-1,1.92,1.92,0,0,0-.6-2,1.42,1.42,0,0,0-.4-0.2,0.9,0.9,0,0,0-.5-0.1,2.35,2.35,0,0,0-.8.2,1.76,1.76,0,0,0-.8.9,0.37,0.37,0,0,0-.1.3v-0.3a2.59,2.59,0,0,1,.7-1.1,1.82,1.82,0,0,1,2-.1,2.29,2.29,0,0,1,1,2.4,2.85,2.85,0,0,1-.8,1.4,3,3,0,0,1-1.5.7,3.66,3.66,0,0,1-3.4-1.2,3.7,3.7,0,0,1-.8-1.8,3.4,3.4,0,0,1,0-2,4,4,0,0,1,1-1.8,6.19,6.19,0,0,1,1.7-1.1,9.86,9.86,0,0,1,3.8-.7c1.2-.1,2.4.1,3.6,0.1a18.21,18.21,0,0,0,3.3-.1,13.56,13.56,0,0,0,2.9-.6,14.7,14.7,0,0,0,4-1.9,5.34,5.34,0,0,0,1-.7Z" transform="translate(-124 -365.9)"/></g></svg>