<svg id="圖層_1" data-name="圖層 1" xmlns="http://www.w3.org/2000/svg" viewBox="0 0 563.64 61.22"><defs><style>.cls-1{opacity:0.7;}.cls-2{fill:#1d1008;}.cls-3{fill:#040000;}</style></defs><title>deco03</title><g class="cls-1"><path class="cls-2" d="M414.83,425.21c-5.83-2-14.05,1.44-12.75,8.61,1.33,7.34,8.7,6.69,10.47,2.86,2-4.35-1.78-8.65-5.9-6.58-2.86,1,.61-6.28,7.46-3.79a12,12,0,0,1,6.6,5.5c2.87,5.39,1,12.45-3.43,16.43-5,4.48-12.39,3.89-18.29,1.8a45.17,45.17,0,0,1-5.67-2.34,10.22,10.22,0,0,0,5.75-7.28,7.34,7.34,0,0,0-3.37-7.93,5.8,5.8,0,0,0-7.46,1.3,4.85,4.85,0,0,0,.72,7,3.62,3.62,0,0,0,5.77-3.36,0.23,0.23,0,0,0-.05-0.12,2.66,2.66,0,0,0-1-1.53,2.28,2.28,0,0,0-3.56.84,2.33,2.33,0,0,0,1.6,3.16,2.37,2.37,0,0,0,2.51-1.71,2.6,2.6,0,0,1-1.13,2.11,3.68,3.68,0,0,1-3.84-.2,3.13,3.13,0,0,1-.9-4.38,4.76,4.76,0,0,1,4.13-2.25A5.34,5.34,0,0,1,397,437c2.16,5.89-4.54,9.54-5.2,9.77-3.59-1.89-7.13-4-10.75-5.83,21.4-14.69,2.55-40.6-11.58-32.3a14.68,14.68,0,0,0-5.56-1.7c-3.91-.3-8.69,2-9.63,6.09-0.6,2.64,1,5.88,3.91,6.17,2.08,0.21,4.79-1,4.43-3.45,0-.2-0.42-1.37-1.34-0.61,1.14,2.34-1.56,3.77-3.39,2-1.52-1.49-1.74-4.34,1.62-6,1.63-.83,4.19-0.73,6.74.17-0.31.33-.61,0.67-0.91,1-4,5-2.36,9.83.08,12.24,2.23,2.2,5.84,3.16,8.61,1.77-1.95,5.41-6.31,8.16-11.27,8.95a96.61,96.61,0,0,0-13-1.9c-0.62-.28-1.22-0.58-1.8-0.91-0.33-.19-0.65-0.39-1-0.6-8.15-6.11-9.65-18.53-6.31-27.93a25.27,25.27,0,0,1,1.91-4c2.54-4.09,6.57-7.26,11.61-7.38A9.09,9.09,0,0,1,361,395a5.37,5.37,0,0,1,1.32,5.27,3.85,3.85,0,0,1-3.11,2.61,3,3,0,0,1-3.18-2.26,2.54,2.54,0,0,0,4.31-2.67,2.81,2.81,0,0,0-3-1.18,3.32,3.32,0,0,0-2.33,2.32,4,4,0,0,0,2.35,4.57,4.64,4.64,0,0,0,5.1-1.34c1.95-2.27,1.39-5.75-.33-8-4.35-5.6-13.18-2.69-17.47,1.37a20.91,20.91,0,0,0-5.55,9.8,60.57,60.57,0,0,0-1.51,6,22.66,22.66,0,0,0-4.25-7.82,30.83,30.83,0,0,0-12.75-8.62,33.06,33.06,0,0,0-11.82-2,28.82,28.82,0,0,0-5.87.68,26.08,26.08,0,0,0-2.82.8c-0.43.15-2.24,1.19-2.59,1.06,0,0,0,.58,0,0.73,0-.15,0-0.73,0-0.73-0.35.13-2.16-.92-2.59-1.06a26.08,26.08,0,0,0-2.82-.8,28.82,28.82,0,0,0-5.87-.68,33.06,33.06,0,0,0-11.82,2,30.83,30.83,0,0,0-12.75,8.62,22.66,22.66,0,0,0-4.25,7.82,60.66,60.66,0,0,0-1.51-6,20.91,20.91,0,0,0-5.55-9.8c-4.29-4.06-13.12-7-17.47-1.37-1.73,2.23-2.28,5.7-.33,8a4.64,4.64,0,0,0,5.1,1.34,4,4,0,0,0,2.35-4.57,3.32,3.32,0,0,0-2.33-2.32,2.81,2.81,0,0,0-3,1.18,2.54,2.54,0,0,0,4.31,2.67,3,3,0,0,1-3.18,2.26,3.85,3.85,0,0,1-3.11-2.61A5.37,5.37,0,0,1,234,395a9.09,9.09,0,0,1,6.78-2.5c5,0.12,9.07,3.28,11.61,7.38a25.27,25.27,0,0,1,1.91,4c3.34,9.4,1.84,21.82-6.31,27.93-0.31.21-.63,0.41-1,0.6-0.58.33-1.18,0.63-1.8,0.91a96.6,96.6,0,0,0-13,1.9c-5-.79-9.33-3.54-11.27-8.95,2.77,1.39,6.38.43,8.61-1.77,2.44-2.42,4.1-7.26.08-12.24-0.3-.37-0.6-0.71-0.91-1,2.56-.9,5.11-1,6.74-0.17,3.36,1.7,3.14,4.55,1.62,6-1.82,1.8-4.52.37-3.39-2-0.92-.76-1.31.41-1.34,0.61-0.36,2.48,2.35,3.66,4.43,3.45,2.88-.29,4.52-3.52,3.91-6.17-0.94-4.1-5.72-6.39-9.63-6.09a14.68,14.68,0,0,0-5.56,1.7c-14.13-8.3-33,17.61-11.58,32.3-3.62,1.8-7.16,3.94-10.75,5.83-0.66-.23-7.36-3.88-5.2-9.77a5.34,5.34,0,0,1,4.49-3.65,4.76,4.76,0,0,1,4.13,2.25,3.13,3.13,0,0,1-.9,4.38,3.68,3.68,0,0,1-3.84.2,2.6,2.6,0,0,1-1.13-2.11,2.37,2.37,0,0,0,2.51,1.71,2.33,2.33,0,0,0,1.6-3.16,2.28,2.28,0,0,0-3.56-.84,2.66,2.66,0,0,0-1,1.53,0.23,0.23,0,0,0-.05.12,3.62,3.62,0,0,0,5.77,3.36,4.85,4.85,0,0,0,.72-7,5.8,5.8,0,0,0-7.46-1.3,7.34,7.34,0,0,0-3.37,7.93,10.22,10.22,0,0,0,5.75,7.28,45.17,45.17,0,0,1-5.67,2.34c-5.9,2.09-13.3,2.69-18.29-1.8-4.42-4-6.29-11-3.43-16.43a10.67,10.67,0,0,1,6.6-5.5c7.76-1.95,8.49,3.79,8.49,3.79-4.11-2.07-8.93,2.23-6.94,6.58,1.76,3.84,9.13,4.48,10.47-2.86,1.31-7.17-6.92-10.64-12.75-8.61A14,14,0,0,0,171.25,440a14.5,14.5,0,0,0,9,11.18c5,2.08,10.27,1.37,15.36.15a37.68,37.68,0,0,0,7.8-2.79,50.5,50.5,0,0,0,5,1.13A63,63,0,0,0,242,447.58a61.23,61.23,0,0,0,8.46-3.53l0.45-.23,0.53-.28a64.06,64.06,0,0,0,10.6-6.94,0.25,0.25,0,0,0,.11-0.07l0.06-.06,0.51-.41c6.23,7.09,16.1,9.46,22.25,7.85a10.32,10.32,0,0,0,1.11-.36l4.68,2.25c-1.43-.87-2.83-1.68-4.22-2.44a7.77,7.77,0,0,0,4.88-6.39,20.83,20.83,0,0,0,6.09-2,20.83,20.83,0,0,0,6.09,2,7.77,7.77,0,0,0,4.88,6.39c-1.39.77-2.79,1.58-4.22,2.44l4.68-2.25a10.32,10.32,0,0,0,1.11.36c6.15,1.61,16-.76,22.25-7.85l0.51,0.41,0.06,0.06a0.25,0.25,0,0,0,.11.07,64.07,64.07,0,0,0,10.6,6.94l0.53,0.28,0.45,0.23a61.23,61.23,0,0,0,8.46,3.53,63,63,0,0,0,33.58,2.09,50.5,50.5,0,0,0,5-1.13,37.68,37.68,0,0,0,7.8,2.79c5.1,1.22,10.37,1.92,15.36-.15a14.5,14.5,0,0,0,9-11.18A14,14,0,0,0,414.83,425.21Zm-41.54-1c-2.18,1.86-5.29.9-7.16-1.51-2-2.58-2.43-7,0-9.83a14.06,14.06,0,0,1,1.19-1.26c3.34,1.47,6.48,4.3,7.33,8.22A4.48,4.48,0,0,1,373.29,424.25Zm3.88,0.78c1.9-7.15-1.75-12.63-6.36-15.61,12.13-4.68,27.24,17.3,7.43,30.2a37.68,37.68,0,0,0-4.78-1.73q-3.55-1-6.93-1.81A15.88,15.88,0,0,0,377.18,425Zm-29.4,9.28,0.3,0.17a23.81,23.81,0,0,0,16.73,2.11,74.84,74.84,0,0,1,8.75,2.53c1.12,0.4,2.22.86,3.32,1.35l-0.7.41c-12.78,7.07-31.37,3.38-42.36-5.83l-0.09-.07a64.5,64.5,0,0,1,7.53-.71C343.13,434.19,345.34,434.2,347.78,434.31Zm-10-10.93a8.12,8.12,0,0,0,.35,1.12,20.52,20.52,0,0,0,7.73,8.65,65.29,65.29,0,0,0-12,.86,23,23,0,0,0,3.61-8.56C337.62,424.77,337.72,424.08,337.8,423.39Zm-81,1.12a8.09,8.09,0,0,0,.35-1.12c0.08,0.69.18,1.38,0.32,2.06a23,23,0,0,0,3.61,8.56,65.29,65.29,0,0,0-12-.86A20.52,20.52,0,0,0,256.78,424.51Zm-9.92,10,0.3-.17c2.43-.11,4.64-0.12,6.52-0.05a64.49,64.49,0,0,1,7.53.71l-0.08.07c-11,9.21-29.58,12.9-42.36,5.83l-0.7-.41c1.1-.49,2.2-0.94,3.32-1.35a74.84,74.84,0,0,1,8.75-2.53A23.81,23.81,0,0,0,246.86,434.48Zm-19.24-22.83a14.07,14.07,0,0,1,1.19,1.26c2.41,2.86,2,7.26,0,9.83-1.86,2.41-5,3.37-7.16,1.51a4.48,4.48,0,0,1-1.34-4.38C221.15,416,224.28,413.12,227.63,411.65Zm-3.51-2.23c-4.61,3-8.26,8.46-6.36,15.61a15.88,15.88,0,0,0,10.64,11q-3.38.81-6.93,1.81a37.68,37.68,0,0,0-4.78,1.73C196.87,426.72,212,404.75,224.11,409.42Zm28.28,33a64.08,64.08,0,0,1-10.13,4.49q-1.65.57-3.33,1a60.64,60.64,0,0,1-34.13-.66c3.51-1.78,7-3.77,10.43-5.5,0.49,0.3,1,.6,1.53.9,13.19,7.26,34,2.4,45.06-6.84A60.5,60.5,0,0,1,252.39,442.45ZM262.3,434a22.78,22.78,0,0,1-4-9.16,25.6,25.6,0,0,1,4.85-20.32C271,395,285.65,391.41,296.65,396a23.06,23.06,0,0,0-10.86,12.58c-6.4.33-10.92,5.49-12,11.38l-0.26,0a1.91,1.91,0,0,0-1.59,3A50.22,50.22,0,0,1,262.3,434Zm25.76-7.25a7.23,7.23,0,0,1-7.63-5.93,6.16,6.16,0,0,1,1.73-5.39,6,6,0,0,1,2.27-1.41l0.12,0A19.87,19.87,0,0,0,288.06,426.79ZM284.81,414h0a3.88,3.88,0,0,1,2.39.29c1.54,0.73,2,1.8,1,2.87a2.55,2.55,0,0,0-2,.42,1,1,0,0,0,.42,1.79c2.57,0.55,4-3.18,2.65-5a4.27,4.27,0,0,0-4.36-1.4,18.52,18.52,0,0,1,.62-2.81c5.28,0.06,8.4,2.9,9.53,6.19a8.48,8.48,0,0,1,0,4.66,8.05,8.05,0,0,1-6.66,5.76A19.78,19.78,0,0,1,284.81,414Zm-21.46,21.36a83.31,83.31,0,0,1,19.93,6.91A21.89,21.89,0,0,1,263.35,435.34Zm21,6.68-0.24.06a78.3,78.3,0,0,0-20.66-7.62,49.36,49.36,0,0,0,9.24-10.92,1.88,1.88,0,0,0,.81.19h0A13.52,13.52,0,0,0,280,434.46s0,0.06,0,.15a2,2,0,0,0,0,.4,1.49,1.49,0,0,0,2.38,1.37,0.89,0.89,0,0,0,.43-0.51,20.85,20.85,0,0,0,2.45.82,14.61,14.61,0,0,0,4.85.43C289.5,439.13,287.71,441.14,284.34,442Zm5.76-5.31a14.21,14.21,0,0,1-4.62-.47,21,21,0,0,1-2.64-.93,2,2,0,0,0,0-.29,1.92,1.92,0,0,0-.34-1.1,1,1,0,0,1-.2-1.37,2.77,2.77,0,0,1,1.39-.65,6.91,6.91,0,0,1,3.41,0l0.28,0.09A4.08,4.08,0,0,1,290.1,436.71Zm1.28-.12a5.33,5.33,0,0,0-3.92-5c-3.48-1.22-6.47.54-7.29,2.3a12.74,12.74,0,0,1-6-10.27,1.9,1.9,0,0,0,.3-3.41,12.42,12.42,0,0,1,10.78-10,19.54,19.54,0,0,0-.6,2.84,6.33,6.33,0,0,0-1.09.36c-4.42,1.94-5.38,7.61-2.51,11.26a8.24,8.24,0,0,0,7.61,3,24.82,24.82,0,0,0,8.46,7.19A19.49,19.49,0,0,1,291.38,436.59Zm6.09-1.59c0-.07,0-0.33,0-0.33A24.19,24.19,0,0,1,289,427.6a8.61,8.61,0,0,0,4.71-2.45c5-5.09,2.2-14.64-4.72-16.28a12.77,12.77,0,0,0-2.66-.32h-0.26a21.79,21.79,0,0,1,11.38-12.21,21.79,21.79,0,0,1,11.38,12.21h-0.26a12.77,12.77,0,0,0-2.66.32c-6.92,1.64-9.7,11.19-4.72,16.28a8.61,8.61,0,0,0,4.71,2.45,24.19,24.19,0,0,1-8.45,7.07S297.47,434.93,297.47,435Zm10.84-15.65a1,1,0,0,0,.42-1.79,2.55,2.55,0,0,0-2-.42c-1-1.07-.59-2.14,1-2.87a3.88,3.88,0,0,1,2.39-.29h0a19.78,19.78,0,0,1-3.6,12.77,8.05,8.05,0,0,1-6.66-5.76,8.48,8.48,0,0,1,0-4.66c1.14-3.29,4.25-6.13,9.53-6.19A18.53,18.53,0,0,1,310,413a4.27,4.27,0,0,0-4.36,1.4C304.31,416.17,305.73,419.89,308.31,419.35ZM310.4,414l0.12,0a6,6,0,0,1,2.27,1.41,6.16,6.16,0,0,1,1.73,5.39,7.23,7.23,0,0,1-7.63,5.93A19.87,19.87,0,0,0,310.4,414Zm-6.84,22.55a19.49,19.49,0,0,1-5.74-1.75,24.82,24.82,0,0,0,8.46-7.19,8.24,8.24,0,0,0,7.61-3c2.87-3.66,1.92-9.33-2.51-11.26a6.33,6.33,0,0,0-1.09-.36,19.54,19.54,0,0,0-.6-2.84,12.42,12.42,0,0,1,10.78,10,1.9,1.9,0,0,0,.3,3.41,12.74,12.74,0,0,1-6,10.27c-0.82-1.76-3.81-3.52-7.29-2.3A5.33,5.33,0,0,0,303.56,436.59Zm4-4.62,0.28-.09a6.91,6.91,0,0,1,3.41,0,2.77,2.77,0,0,1,1.39.65,1,1,0,0,1-.2,1.37,1.92,1.92,0,0,0-.34,1.1,2,2,0,0,0,0,.29,21,21,0,0,1-2.64.93,14.21,14.21,0,0,1-4.62.47A4.08,4.08,0,0,1,307.53,432ZM310.59,442c-3.37-.88-5.16-2.88-5.67-4.89a14.61,14.61,0,0,0,4.85-.43,20.87,20.87,0,0,0,2.45-.82,0.89,0.89,0,0,0,.43.51A1.49,1.49,0,0,0,315,435a2,2,0,0,0,0-.4c0-.09,0-0.15,0-0.15a13.52,13.52,0,0,0,6.44-10.73h0a1.88,1.88,0,0,0,.81-0.19,49.36,49.36,0,0,0,9.24,10.92,78.3,78.3,0,0,0-20.66,7.62Zm1.07,0.24a83.31,83.31,0,0,1,19.93-6.91A21.89,21.89,0,0,1,311.66,442.25Zm21-8.22A50.22,50.22,0,0,1,323,422.88a1.91,1.91,0,0,0-1.59-3l-0.26,0c-1.11-5.88-5.64-11-12-11.38A23.06,23.06,0,0,0,298.28,396c11-4.57,25.65-1,33.47,8.58a25.6,25.6,0,0,1,4.85,20.32A22.78,22.78,0,0,1,332.63,434ZM356,448q-1.68-.48-3.33-1a64.08,64.08,0,0,1-10.13-4.49,60.5,60.5,0,0,1-9.42-6.57c11,9.24,31.86,14.1,45.06,6.84,0.53-.29,1-0.59,1.53-0.9,3.48,1.74,6.92,3.72,10.43,5.5A60.64,60.64,0,0,1,356,448Z" transform="translate(-15.65 -391.27)"/><line class="cls-2" x1="156.73" y1="43.09" y2="43.09"/><polygon class="cls-3" points="156.73 44.47 0 43.09 156.73 41.71 156.73 44.47"/><line class="cls-2" x1="406.91" y1="43.09" x2="563.64" y2="43.09"/><polygon class="cls-3" points="406.91 41.71 563.64 43.09 406.91 44.47 406.91 41.71"/></g></svg>