<?xml version="1.0" encoding="utf-8"?>
<!-- Generator: Adobe Illustrator 19.2.0, SVG Export Plug-In . SVG Version: 6.00 Build 0)  -->
<svg version="1.1" id="圖層_1" xmlns="http://www.w3.org/2000/svg" xmlns:xlink="http://www.w3.org/1999/xlink" x="0px" y="0px"
	 viewBox="0 0 533.6 63.4" style="enable-background:new 0 0 533.6 63.4;" xml:space="preserve">
<style type="text/css">
	.st0{opacity:0.75;}
	.st1{fill:#323317;}
</style>
<g class="st0">
	<g>
		<g>
			<path class="st1" d="M272.1,24.3c-1.6-1.3-4.2-1.8-7.8-1.5c-3.5,0.4-7.6,1.5-12.2,3.5c-3.4,1.5-6.4,3.1-9.1,4.9
				c-2.7,1.8-5.2,3.9-7.5,6.2c-0.6-0.3-1.2-0.6-1.7-0.9c-0.5-0.3-1-0.6-1.5-1c-1.3-1.1-2.1-2.1-2.4-3.2c-0.3-1,0-2.1,0.9-3.1
				c1.1-1.3,2.8-2.4,5-3.2c2.2-0.8,6.2-1.5,11.9-2.2c0.5-0.1,1.3-0.2,2.2-0.2c2.6-0.3,4-0.6,4.3-1c0.1-0.1,0.1-0.2,0.1-0.2
				c0-0.1-0.1-0.1-0.1-0.2c-0.2-0.2-0.8-0.3-1.7-0.4c-0.9-0.1-1.7-0.2-2.3-0.3c-1.7-0.3-4.3-1-7.7-2c-3.5-1-6-1.7-7.7-2.1
				c-7-1.7-13.6-1.6-19.9,0.3c-6.3,1.9-11.4,5.3-15.4,10.3c-1.4,1.8-2.6,3.5-3.4,5.3c-1.8-0.1-3.7-0.2-5.7-0.2
				c0-0.9,0.2-1.6,0.6-2.1c0.4-0.5,1.2-0.9,2.4-1.3c0.2-0.1,0.5-0.1,0.9-0.2c0.4-0.1,0.7-0.2,0.9-0.2c0.5-0.2,0.9-0.4,1.2-0.7
				c0.2-0.3,0.3-0.6,0.2-0.9c-0.1-0.3-0.3-0.5-0.6-0.6c-0.3-0.1-0.7,0-1.2,0.1c-0.6,0.2-1.3,0.5-2.1,1c-0.8,0.5-1.4,0.8-1.6,0.8
				c-1,0.3-2.4,0.4-4.1,0.1c-1.8-0.2-3.5-0.7-5.2-1.4c-2.6-1-4.8-2.5-6.6-4.4c-1.8-1.9-3.1-4.1-3.9-6.5c-0.6-2-0.6-3.9,0-5.6
				c0.6-1.7,1.8-2.9,3.5-3.7c0,0.1,0.1,0.4,0.2,0.9c0.1,0.4,0.2,0.8,0.3,1c1.5,4.9,4,8.6,7.4,11.2c3.4,2.6,6.7,3.4,9.9,2.4
				c1.5-0.5,2.6-1.3,3.2-2.6c0.6-1.3,0.7-2.6,0.3-4.1c-1.2-3.7-3.7-6.6-7.6-8.6c-3.9-2-8.1-2.6-12.8-1.7c-0.2-1.2-0.4-2.4-0.5-3.7
				c-0.1-1.3-0.2-1.9-0.2-2c0-0.1-0.1-0.2-0.2-0.3C174.5,0,174.5,0,174.4,0c-0.3,0.1-0.4,0.6-0.4,1.6c0,1,0.1,2.6,0.4,4.8L174,6.6
				c-3.2,1-5.4,2.6-6.7,4.8c-1.3,2.2-1.5,4.7-0.6,7.6c1.2,3.9,3.8,6.9,7.8,8.9c2.2,1.1,4.6,1.8,7.4,2.3c-5.7,0.5-40.3-0.7-39.7,10.8
				c0.3,6.3,20.6,0.6,13-3.5c1,1.6-1.7,3.3-2.8,3.8c-1.5,0.8-3.1,1.4-4.6,1.6c-1.3,0.2-2.3,0.1-2.9-0.2c-0.6-0.3-0.8-0.8-0.5-1.5
				c0.9-2,4.2-4,9.9-5.9c7.6-2.6,16.7-3.3,24.6-4.4c-2.6,0.7-5.1,1.6-7.6,2.6c-2.5,1-4.9,2.3-7.3,3.7c-2.6,1.5-6.7,4.4-12.3,8.7
				c-9.3,7.1-17.9,12-36.2,12.8c14.1,6.7,28.5-4.2,35.6-9.7c4.5-1.1,10.1-0.3,13,1.3c0.2,0.1-0.3,0-0.9,0.2
				c-0.9,0.4-1.5,1.6-0.5,2.5c0.7,0.6,2.1,0.4,2.5-0.1c0.5-0.6,0.4-1.6,0.1-2.3c-1.9-4.8-11.9-2.3-13.9-1.8
				c8.5-6.7,14.6-11.2,18.2-13.4c4.2-2.6,8.1-4.1,13-4.8c0.3,0,0.6-0.1,0.9-0.1c1.8,0.2,3.7,0.2,5.8,0.1c-0.5,0.5-0.9,1-1.2,1.5
				c-0.3,0.5-0.6,1-0.7,1.6c-0.8,0.2-1.6,0.3-2.3,0.5c-0.7,0.2-1.3,0.3-1.8,0.5c-3.7,1.2-6.4,2.9-8.1,5.2c-1.7,2.3-2.1,4.8-1.3,7.5
				c0.9,2.8,2.8,4.8,5.8,6c2.9,1.2,6.2,1.2,9.8,0c2.1-0.6,3.9-1.6,5.6-2.8c0.7-0.5,1.4-1.1,2-1.8c0.4,0.5,0.9,0.9,1.5,1.4
				c3.2,2.6,7.1,3.5,11.7,2.7c4.6-0.8,8.4-3.1,11.5-6.9c2.4-2.9,3.6-5.9,3.6-9.1c0.1-3.1-1-5.6-3.3-7.4c-2.4-1.9-5.3-2.6-8.6-1.9
				c-3.4,0.7-6.3,2.5-8.7,5.5c-0.5,0.6-0.9,1.2-1.3,1.8c-2.1-0.6-4.4-1-6.8-1.2c0.6-1.3,1.5-2.6,2.5-3.9c3.9-4.8,9.3-7.6,16.2-8.6
				c6.9-1,16.8-0.2,29.6,2.3c-4,0.4-7.3,1.1-9.9,2.2c-2.6,1-4.6,2.4-6,4.2c-1.4,1.7-1.9,3.6-1.7,5.6c0.3,2,1.3,3.7,3.1,5.2
				c0.3,0.2,0.5,0.4,0.8,0.6c0.2,0.2,0.5,0.3,0.7,0.5c-2.5,3.7-3.6,7.3-3.5,10.7c0.2,3.4,1.6,6.2,4.3,8.4c3,2.5,6.5,3.3,10.5,2.6
				c4-0.7,7.4-2.9,10.3-6.5c1.9-2.4,3.2-4.9,3.9-7.7c0.7-2.8,0.8-5.7,0.3-8.7c3.1-1.3,6-2.8,8.4-4.5c2.5-1.7,4.4-3.3,5.7-4.9
				C273.5,29,274.3,26,272.1,24.3z M175.7,7.2l0.6-0.2c1.3-0.4,2.7-0.6,4.2-0.5c1.5,0.1,3,0.4,4.6,1c2.3,0.8,4.4,2,6.2,3.7
				c1.8,1.6,3,3.4,3.5,5.2c0.4,1.3,0.4,2.4,0,3.3c-0.4,0.9-1.1,1.6-2.2,1.9c-1.2,0.4-2.6,0.3-4.2-0.2c-1.6-0.5-3.3-1.4-5-2.7
				c-1.7-1.3-3.2-2.9-4.6-4.7c-1.3-1.8-2.3-3.6-2.8-5.4L175.7,7.2z M204,35.6c0.4,0.1,0.7,0.2,1.1,0.3c4.4,1.4,7,3.2,7.7,5.3
				c0.2,0.7,0.1,1.3-0.2,1.8c-0.4,0.5-1,0.9-1.9,1.2c-1,0.3-2.4,0.4-4.2,0.3c-1.8-0.2-3.6-0.5-5.5-1.2
				C202.1,40.8,202.7,38.1,204,35.6z M198.4,47.3c0.4-0.5,0.8-1,1.2-1.6c2.3,0.3,4.3,0.4,6.2,0.3c1.9-0.1,3.5-0.3,4.8-0.8
				c1.3-0.4,2.3-1,2.8-1.8c0.6-0.8,0.7-1.6,0.4-2.5c-0.7-2.2-3.3-4.1-7.9-5.6c-0.5-0.2-0.9-0.3-1.4-0.5c0.4-0.6,0.8-1.2,1.2-1.7
				c2.1-2.6,4.7-4.2,7.7-4.8c3-0.6,5.6-0.1,7.6,1.6c1.8,1.4,2.6,3.3,2.6,5.6c0,2.3-1,4.6-2.8,6.9c-1.5,1.9-3.4,3.5-5.5,4.7
				c-2.1,1.3-4.3,2.1-6.6,2.5c-2,0.4-3.8,0.4-5.5,0c-1.7-0.4-3.2-1-4.4-2C198.6,47.5,198.5,47.4,198.4,47.3z M196.5,44.9
				c0.6,0.2,1.3,0.4,2,0.5c-0.3,0.4-0.6,0.8-0.9,1.2C197.2,46,196.8,45.5,196.5,44.9z M194.8,44.3c0.4,1.3,1,2.4,1.8,3.5
				c-0.7,0.7-1.4,1.3-2.1,1.9c-1.5,1.2-3.2,2-5.1,2.6c-3.1,1-5.9,1-8.4,0.2c-2.5-0.8-4.1-2.4-4.8-4.6c-0.7-2.2-0.2-4.5,1.5-6.8
				c1.7-2.3,4-4,7.1-4.9c0.2-0.1,0.6-0.2,1.2-0.3c0.5-0.1,0.9-0.2,1.2-0.2c0,0.4,0,0.8,0.1,1.2c0,0.3,0.1,0.7,0.2,1
				c0.6,1.8,1.8,3.3,3.7,4.6C192.1,43.2,193.3,43.8,194.8,44.3z M195.3,34.6c-0.7,1.8-1,3.7-1.1,5.5l0,0.1c-0.1-0.1-0.2-0.1-0.3-0.2
				c-1.7-1.4-2.8-3.1-3.4-5l0-0.1C192.2,34.7,193.8,34.6,195.3,34.6z M203.1,35.4c-0.4,0.7-0.7,1.3-1,2c-0.8,1.9-1.1,3.7-2.2,5.6
				c-1.7-0.4-3.3-1.1-4.7-2c0-0.5-0.1-1,0-1.5c0-1.7,0.4-3.3,1-4.9C198.7,34.6,200.9,34.9,203.1,35.4z M245.4,43.5
				c3.6-0.3,7.5-1.3,11.6-2.8c0.5,2.9,0.3,5.6-0.3,8.3c-0.7,2.7-1.9,5.1-3.6,7.2c-2.6,3.2-5.6,5.1-9.1,5.9c-3.5,0.8-6.5,0.3-8.9-1.7
				c-2.3-1.8-3.4-4.4-3.4-7.7c0-3.2,1.2-6.6,3.6-10C238.4,43.6,241.8,43.8,245.4,43.5z M272.6,27.3c0,0.9-0.4,1.9-1.3,3
				c-1.2,1.5-3,2.9-5.4,4.3c-2.4,1.4-5.2,2.6-8.4,3.5c-0.4-1.6-0.9-3.1-1.4-4.2c-0.5-1.2-0.9-1.9-1.2-2.2c-0.1-0.1-0.2-0.2-0.3-0.2
				c-0.1,0-0.2,0-0.2,0c-0.1,0.1,0.2,0.9,0.8,2.4c0.6,1.5,1.1,3,1.4,4.4c-3.6,1-6.9,1.5-9.9,1.6c-3.1,0.1-5.8-0.4-8.1-1.3
				c2.4-3,5.2-5.6,8.1-7.8c3-2.2,6.2-3.9,9.7-5.1c3.4-1.3,6.5-2,9.2-2.1c2.7-0.1,4.7,0.3,5.9,1.3C272.2,25.5,272.6,26.3,272.6,27.3z
				"/>
		</g>
		<g>
			<path class="st1" d="M261.6,30.9c1.3,1.6,3.2,3.2,5.7,4.9c2.5,1.7,5.3,3.1,8.4,4.5c-0.5,3.1-0.5,6,0.3,8.7c0.7,2.7,2,5.3,3.9,7.7
				c2.9,3.6,6.3,5.7,10.3,6.5c4,0.7,7.5-0.1,10.5-2.6c2.7-2.2,4.1-5,4.3-8.4c0.2-3.4-1-7-3.5-10.7c0.2-0.2,0.5-0.3,0.7-0.5
				c0.2-0.2,0.5-0.4,0.8-0.6c1.8-1.5,2.8-3.2,3.1-5.2c0.3-2-0.3-3.9-1.7-5.6c-1.4-1.8-3.4-3.2-6-4.2c-2.6-1-5.9-1.8-9.9-2.2
				c12.8-2.6,22.7-3.3,29.6-2.3c7,1,12.4,3.9,16.2,8.6c1,1.3,1.9,2.6,2.5,3.9c-2.4,0.2-4.7,0.6-6.8,1.2c-0.4-0.6-0.8-1.2-1.3-1.8
				c-2.4-3-5.3-4.8-8.7-5.5c-3.4-0.7-6.2,0-8.6,1.9c-2.2,1.8-3.3,4.3-3.3,7.4c0.1,3.1,1.3,6.2,3.6,9.1c3.1,3.8,6.9,6.1,11.5,6.9
				c4.6,0.8,8.5-0.1,11.7-2.7c0.5-0.4,1-0.9,1.5-1.4c0.6,0.6,1.3,1.2,2,1.8c1.7,1.3,3.5,2.2,5.6,2.8c3.6,1.1,6.9,1.1,9.8,0
				c3-1.2,4.9-3.2,5.8-6c0.9-2.7,0.4-5.2-1.3-7.5c-1.7-2.3-4.4-4.1-8.1-5.2c-0.5-0.2-1.1-0.3-1.8-0.5c-0.7-0.2-1.4-0.3-2.3-0.5
				c-0.2-0.5-0.4-1.1-0.7-1.6c-0.3-0.5-0.8-1-1.2-1.5c2,0.1,4,0.1,5.8-0.1c0.3,0,0.6,0.1,0.9,0.1c4.9,0.7,8.7,2.2,13,4.8
				c3.6,2.2,9.7,6.7,18.2,13.4c-2-0.5-12-2.9-13.9,1.8c-0.3,0.7-0.4,1.7,0.1,2.3c0.4,0.5,1.8,0.7,2.5,0.1c1-1,0.4-2.1-0.5-2.5
				c-0.6-0.3-1-0.1-0.9-0.2c2.9-1.6,8.5-2.4,13-1.3c7.2,5.5,21.6,16.4,35.6,9.7c-18.3-0.8-26.9-5.7-36.2-12.8
				c-5.6-4.3-9.7-7.2-12.3-8.7c-2.4-1.4-4.8-2.6-7.3-3.7c-2.5-1-5-1.9-7.6-2.6c7.9,1.1,17,1.8,24.6,4.4c5.7,1.9,9,3.9,9.9,5.9
				c0.3,0.7,0.2,1.2-0.5,1.5c-0.6,0.3-1.6,0.4-2.9,0.2c-1.6-0.2-3.1-0.8-4.6-1.6c-1-0.6-3.8-2.2-2.8-3.8c-7.7,4,12.7,9.7,13,3.5
				c0.6-11.5-34-10.3-39.7-10.8c2.7-0.4,5.2-1.2,7.4-2.3c4-2,6.6-5,7.8-8.9c0.9-2.9,0.7-5.4-0.6-7.6c-1.3-2.2-3.5-3.8-6.7-4.8
				l-0.3-0.1c0.3-2.2,0.4-3.8,0.4-4.8c0-1-0.2-1.5-0.4-1.6c0,0-0.1,0-0.2,0.1c-0.1,0.1-0.1,0.2-0.2,0.3c0,0.1-0.1,0.8-0.2,2
				c-0.1,1.3-0.3,2.5-0.5,3.7c-4.7-0.8-9-0.3-12.8,1.7c-3.9,2-6.4,4.8-7.6,8.6c-0.5,1.5-0.4,2.9,0.3,4.1c0.6,1.3,1.7,2.1,3.2,2.6
				c3.2,1,6.5,0.2,9.9-2.4c3.4-2.6,5.9-6.3,7.4-11.2c0.1-0.2,0.2-0.6,0.3-1c0.1-0.4,0.2-0.7,0.2-0.9c1.7,0.7,2.9,2,3.5,3.7
				c0.6,1.7,0.7,3.6,0,5.6c-0.8,2.4-2.1,4.6-3.9,6.5c-1.8,1.9-4,3.4-6.6,4.4c-1.7,0.7-3.4,1.2-5.2,1.4c-1.8,0.2-3.2,0.2-4.1-0.1
				c-0.3-0.1-0.8-0.4-1.6-0.8c-0.8-0.5-1.5-0.8-2.1-1c-0.5-0.1-0.9-0.2-1.2-0.1c-0.3,0.1-0.5,0.3-0.6,0.6c-0.1,0.3,0,0.6,0.2,0.9
				c0.2,0.3,0.6,0.5,1.2,0.7c0.2,0.1,0.5,0.1,0.9,0.2c0.4,0.1,0.7,0.2,0.9,0.2c1.1,0.4,1.9,0.8,2.4,1.3c0.4,0.5,0.6,1.2,0.6,2.1
				c-2,0-3.9,0-5.7,0.2c-0.8-1.8-1.9-3.6-3.4-5.3c-4-5-9.2-8.4-15.4-10.3c-6.3-1.9-12.9-2-19.9-0.3c-1.7,0.4-4.3,1.1-7.7,2.1
				c-3.5,1-6,1.7-7.7,2c-0.6,0.1-1.4,0.2-2.3,0.3c-0.9,0.1-1.5,0.2-1.7,0.4c-0.1,0.1-0.1,0.1-0.1,0.2c0,0.1,0,0.2,0.1,0.2
				c0.3,0.4,1.8,0.7,4.3,1c0.9,0.1,1.7,0.2,2.2,0.2c5.7,0.7,9.6,1.4,11.9,2.2c2.2,0.8,3.9,1.8,5,3.2c0.8,1,1.1,2,0.9,3.1
				c-0.3,1-1,2.1-2.4,3.2c-0.5,0.4-0.9,0.7-1.5,1c-0.5,0.3-1.1,0.6-1.7,0.9c-2.3-2.3-4.8-4.4-7.5-6.2c-2.7-1.8-5.7-3.4-9.1-4.9
				c-4.6-2-8.7-3.1-12.2-3.5c-3.5-0.3-6.1,0.1-7.8,1.5C259.3,26,260.1,29,261.6,30.9z M357.4,8.7c-0.6,1.8-1.5,3.6-2.8,5.4
				c-1.3,1.8-2.8,3.4-4.6,4.7c-1.7,1.3-3.3,2.2-5,2.7c-1.6,0.5-3,0.6-4.2,0.2c-1.1-0.3-1.8-1-2.2-1.9c-0.4-0.9-0.4-2,0-3.3
				c0.6-1.9,1.8-3.6,3.5-5.2c1.8-1.6,3.8-2.8,6.2-3.7c1.6-0.6,3.1-0.9,4.6-1c1.5-0.1,2.9,0.1,4.2,0.5l0.6,0.2L357.4,8.7z
				 M332.7,43.4c-1.9,0.6-3.8,1-5.5,1.2c-1.7,0.2-3.1,0.1-4.2-0.3c-0.9-0.3-1.6-0.7-1.9-1.2c-0.4-0.5-0.5-1.1-0.2-1.8
				c0.7-2.1,3.2-3.9,7.7-5.3c0.4-0.1,0.7-0.2,1.1-0.3C330.9,38.1,331.5,40.8,332.7,43.4z M334.8,47.6c-1.2,1-2.7,1.7-4.4,2
				c-1.7,0.3-3.5,0.3-5.5,0c-2.3-0.4-4.5-1.3-6.6-2.5c-2.1-1.3-4-2.8-5.5-4.7c-1.9-2.3-2.8-4.6-2.8-6.9c0-2.3,0.8-4.2,2.6-5.6
				c2-1.7,4.6-2.2,7.6-1.6c3,0.6,5.6,2.2,7.7,4.8c0.4,0.5,0.8,1.1,1.2,1.7c-0.5,0.1-0.9,0.3-1.4,0.5c-4.6,1.6-7.2,3.5-7.9,5.6
				c-0.3,0.9-0.1,1.8,0.4,2.5c0.6,0.8,1.5,1.3,2.8,1.8c1.3,0.4,2.9,0.7,4.8,0.8c1.9,0.1,4,0,6.2-0.3c0.4,0.6,0.8,1.1,1.2,1.6
				C335.1,47.4,335,47.5,334.8,47.6z M336,46.5c-0.3-0.4-0.6-0.8-0.9-1.2c0.7-0.1,1.4-0.3,2-0.5C336.8,45.5,336.4,46,336,46.5z
				 M342.6,42.4c1.9-1.3,3.2-2.8,3.7-4.6c0.1-0.3,0.2-0.6,0.2-1c0-0.3,0.1-0.7,0.1-1.2c0.2,0,0.6,0.1,1.2,0.2
				c0.6,0.1,0.9,0.2,1.2,0.3c3,0.9,5.4,2.6,7.1,4.9c1.7,2.3,2.2,4.6,1.5,6.8c-0.7,2.2-2.3,3.7-4.8,4.6c-2.5,0.8-5.3,0.8-8.4-0.2
				c-1.9-0.6-3.6-1.5-5.1-2.6c-0.7-0.6-1.5-1.2-2.1-1.9c0.8-1.1,1.4-2.2,1.8-3.5C340.3,43.8,341.5,43.2,342.6,42.4z M343.1,34.9
				l0,0.1c-0.6,1.9-1.7,3.5-3.4,5c-0.1,0.1-0.2,0.1-0.3,0.2l0-0.1c0-1.8-0.4-3.7-1.1-5.5C339.8,34.6,341.4,34.7,343.1,34.9z
				 M337.3,34.6c0.6,1.6,1,3.3,1,4.9c0,0.5,0,1,0,1.5c-1.4,0.9-2.9,1.6-4.7,2c-1-1.9-1.4-3.7-2.2-5.6c-0.3-0.7-0.6-1.4-1-2
				C332.7,34.9,334.9,34.6,337.3,34.6z M298.4,42.7c2.4,3.4,3.6,6.8,3.6,10c0,3.3-1.1,5.8-3.4,7.7c-2.4,1.9-5.4,2.5-8.9,1.7
				c-3.5-0.8-6.6-2.8-9.1-5.9c-1.7-2.1-2.9-4.5-3.6-7.2c-0.7-2.7-0.8-5.4-0.3-8.3c4.1,1.5,8,2.4,11.6,2.8
				C291.8,43.8,295.2,43.6,298.4,42.7z M262.2,24.9c1.2-1,3.2-1.4,5.9-1.3c2.7,0.1,5.8,0.9,9.2,2.1c3.5,1.3,6.7,3,9.7,5.1
				c3,2.2,5.7,4.7,8.1,7.8c-2.3,0.9-5,1.3-8.1,1.3c-3.1-0.1-6.4-0.6-9.9-1.6c0.3-1.5,0.8-2.9,1.4-4.4c0.6-1.5,0.9-2.3,0.8-2.4
				c0-0.1-0.1-0.1-0.2,0c-0.1,0-0.2,0.1-0.3,0.2c-0.3,0.3-0.7,1-1.2,2.2c-0.5,1.2-0.9,2.6-1.4,4.2c-3.2-1-6-2.2-8.4-3.5
				c-2.4-1.4-4.2-2.8-5.4-4.3c-0.9-1-1.3-2-1.3-3C261,26.3,261.4,25.5,262.2,24.9z"/>
		</g>
	</g>
	<g>
		<path class="st1" d="M14.2,49.8c35.7-0.2,71.4-0.4,107-0.6c8.9-0.1,18-0.3,26.4-3.8"/>
		<path class="st1" d="M0,56.4c35.7-0.2,71.4-0.4,107-0.6c8.9-0.1,18-0.3,26.4-3.8"/>
	</g>
	<g>
		<path class="st1" d="M519.4,49.8c-35.7-0.2-71.4-0.4-107-0.6c-8.9-0.1-18-0.3-26.4-3.8"/>
		<path class="st1" d="M533.6,56.4c-35.7-0.2-71.4-0.4-107-0.6c-8.9-0.1-18-0.3-26.4-3.8"/>
	</g>
</g>
</svg>
