<?xml version="1.0" encoding="utf-8"?>
<!-- Generator: Adobe Illustrator 19.2.0, SVG Export Plug-In . SVG Version: 6.00 Build 0)  -->
<svg version="1.1" id="圖層_1" xmlns="http://www.w3.org/2000/svg" xmlns:xlink="http://www.w3.org/1999/xlink" x="0px" y="0px"
	 viewBox="0 0 533.6 63.4" style="enable-background:new 0 0 533.6 63.4;" xml:space="preserve">
<style type="text/css">
	.st0{opacity:0.75;}
	.st1{fill:#323317;}
</style>
<g class="st0">
	<g>
		<g>
			<path class="st1" d="M261.5,39.1c1.6,1.3,4.2,1.8,7.8,1.5c3.5-0.4,7.6-1.5,12.2-3.5c3.4-1.5,6.4-3.1,9.1-4.9
				c2.7-1.8,5.2-3.9,7.5-6.2c0.6,0.3,1.2,0.6,1.7,0.9c0.5,0.3,1,0.6,1.5,1c1.3,1.1,2.1,2.1,2.4,3.2c0.3,1,0,2.1-0.9,3.1
				c-1.1,1.3-2.8,2.4-5,3.2c-2.2,0.8-6.2,1.5-11.9,2.2c-0.5,0.1-1.3,0.2-2.2,0.2c-2.6,0.3-4,0.6-4.3,1c-0.1,0.1-0.1,0.2-0.1,0.2
				c0,0.1,0.1,0.1,0.1,0.2c0.2,0.2,0.8,0.3,1.7,0.4c0.9,0.1,1.7,0.2,2.3,0.3c1.7,0.3,4.3,1,7.7,2c3.5,1,6,1.7,7.7,2.1
				c7,1.7,13.6,1.6,19.9-0.3c6.3-1.9,11.4-5.3,15.4-10.3c1.4-1.8,2.6-3.5,3.4-5.3c1.8,0.1,3.7,0.2,5.7,0.2c0,0.9-0.2,1.6-0.6,2.1
				c-0.4,0.5-1.2,0.9-2.4,1.3c-0.2,0.1-0.5,0.1-0.9,0.2c-0.4,0.1-0.7,0.2-0.9,0.2c-0.5,0.2-0.9,0.4-1.2,0.7
				c-0.2,0.3-0.3,0.6-0.2,0.9c0.1,0.3,0.3,0.5,0.6,0.6c0.3,0.1,0.7,0,1.2-0.1c0.6-0.2,1.3-0.5,2.1-1c0.8-0.5,1.4-0.8,1.6-0.8
				c1-0.3,2.4-0.4,4.1-0.1c1.8,0.2,3.5,0.7,5.2,1.4c2.6,1,4.8,2.5,6.6,4.4c1.8,1.9,3.1,4.1,3.9,6.5c0.6,2,0.6,3.9,0,5.6
				c-0.6,1.7-1.8,2.9-3.5,3.7c0-0.1-0.1-0.4-0.2-0.9c-0.1-0.4-0.2-0.8-0.3-1c-1.5-4.9-4-8.6-7.4-11.2c-3.4-2.6-6.7-3.4-9.9-2.4
				c-1.5,0.5-2.6,1.3-3.2,2.6c-0.6,1.3-0.7,2.6-0.3,4.1c1.2,3.7,3.7,6.6,7.6,8.6c3.9,2,8.1,2.6,12.8,1.7c0.2,1.2,0.4,2.4,0.5,3.7
				c0.1,1.3,0.2,1.9,0.2,2c0,0.1,0.1,0.2,0.2,0.3c0.1,0.1,0.1,0.1,0.2,0.1c0.3-0.1,0.4-0.6,0.4-1.6c0-1-0.1-2.6-0.4-4.8l0.3-0.1
				c3.2-1,5.4-2.6,6.7-4.8c1.3-2.2,1.5-4.7,0.6-7.6c-1.2-3.9-3.8-6.9-7.8-8.9c-2.2-1.1-4.6-1.8-7.4-2.3c5.7-0.5,40.3,0.7,39.7-10.8
				c-0.3-6.3-20.6-0.6-13,3.5c-1-1.6,1.7-3.3,2.8-3.8c1.5-0.8,3.1-1.4,4.6-1.6c1.3-0.2,2.3-0.1,2.9,0.2c0.6,0.3,0.8,0.8,0.5,1.5
				c-0.9,2-4.2,4-9.9,5.9c-7.6,2.6-16.7,3.3-24.6,4.4c2.6-0.7,5.1-1.6,7.6-2.6c2.5-1,4.9-2.3,7.3-3.7c2.6-1.5,6.7-4.4,12.3-8.7
				c9.3-7.1,17.9-12,36.2-12.8c-14.1-6.7-28.5,4.2-35.6,9.7c-4.5,1.1-10.1,0.3-13-1.3c-0.2-0.1,0.3,0,0.9-0.2
				c0.9-0.4,1.5-1.6,0.5-2.5c-0.7-0.6-2.1-0.4-2.5,0.1c-0.5,0.6-0.4,1.6-0.1,2.3c1.9,4.8,11.9,2.3,13.9,1.8
				c-8.5,6.7-14.6,11.2-18.2,13.4c-4.2,2.6-8.1,4.1-13,4.8c-0.3,0-0.6,0.1-0.9,0.1c-1.8-0.2-3.7-0.2-5.8-0.1c0.5-0.5,0.9-1,1.2-1.5
				c0.3-0.5,0.6-1,0.7-1.6c0.8-0.2,1.6-0.3,2.3-0.5c0.7-0.2,1.3-0.3,1.8-0.5c3.7-1.2,6.4-2.9,8.1-5.2c1.7-2.3,2.1-4.8,1.3-7.5
				c-0.9-2.8-2.8-4.8-5.8-6c-2.9-1.2-6.2-1.2-9.8,0c-2.1,0.6-3.9,1.6-5.6,2.8c-0.7,0.5-1.4,1.1-2,1.8c-0.4-0.5-0.9-0.9-1.5-1.4
				c-3.2-2.6-7.1-3.5-11.7-2.7c-4.6,0.8-8.4,3.1-11.5,6.9c-2.4,2.9-3.6,5.9-3.6,9.1c-0.1,3.1,1,5.6,3.3,7.4c2.4,1.9,5.3,2.6,8.6,1.9
				c3.4-0.7,6.3-2.5,8.7-5.5c0.5-0.6,0.9-1.2,1.3-1.8c2.1,0.6,4.4,1,6.8,1.2c-0.6,1.3-1.5,2.6-2.5,3.9c-3.9,4.8-9.3,7.6-16.2,8.6
				c-6.9,1-16.8,0.2-29.6-2.3c4-0.4,7.3-1.1,9.9-2.2c2.6-1,4.6-2.4,6-4.2c1.4-1.7,1.9-3.6,1.7-5.6c-0.3-2-1.3-3.7-3.1-5.2
				c-0.3-0.2-0.5-0.4-0.8-0.6c-0.2-0.2-0.5-0.3-0.7-0.5c2.5-3.7,3.6-7.3,3.5-10.7c-0.2-3.4-1.6-6.2-4.3-8.4c-3-2.5-6.5-3.3-10.5-2.6
				c-4,0.7-7.4,2.9-10.3,6.5c-1.9,2.4-3.2,4.9-3.9,7.7c-0.7,2.8-0.8,5.7-0.3,8.7c-3.1,1.3-6,2.8-8.4,4.5c-2.5,1.7-4.4,3.3-5.7,4.9
				C260.1,34.3,259.3,37.3,261.5,39.1z M357.9,56.1l-0.6,0.2c-1.3,0.4-2.7,0.6-4.2,0.5c-1.5-0.1-3-0.4-4.6-1c-2.3-0.8-4.4-2-6.2-3.7
				c-1.8-1.6-3-3.4-3.5-5.2c-0.4-1.3-0.4-2.4,0-3.3c0.4-0.9,1.1-1.6,2.2-1.9c1.2-0.4,2.6-0.3,4.2,0.2c1.6,0.5,3.3,1.4,5,2.7
				c1.7,1.3,3.2,2.9,4.6,4.7c1.3,1.8,2.3,3.6,2.8,5.4L357.9,56.1z M329.6,27.7c-0.4-0.1-0.7-0.2-1.1-0.3c-4.4-1.4-7-3.2-7.7-5.3
				c-0.2-0.7-0.1-1.3,0.2-1.8c0.4-0.5,1-0.9,1.9-1.2c1-0.3,2.4-0.4,4.2-0.3c1.8,0.2,3.6,0.5,5.5,1.2
				C331.5,22.6,330.9,25.2,329.6,27.7z M335.2,16.1c-0.4,0.5-0.8,1-1.2,1.6c-2.3-0.3-4.3-0.4-6.2-0.3c-1.9,0.1-3.5,0.3-4.8,0.8
				c-1.3,0.4-2.3,1-2.8,1.8c-0.6,0.8-0.7,1.6-0.4,2.5c0.7,2.2,3.3,4.1,7.9,5.6c0.5,0.2,0.9,0.3,1.4,0.5c-0.4,0.6-0.8,1.2-1.2,1.7
				c-2.1,2.6-4.7,4.2-7.7,4.8c-3,0.6-5.6,0.1-7.6-1.6c-1.8-1.4-2.6-3.3-2.6-5.6c0-2.3,1-4.6,2.8-6.9c1.5-1.9,3.4-3.5,5.5-4.7
				c2.1-1.3,4.3-2.1,6.6-2.5c2-0.4,3.8-0.4,5.5,0c1.7,0.4,3.2,1,4.4,2C335,15.8,335.1,16,335.2,16.1z M337.1,18.5
				c-0.6-0.2-1.3-0.4-2-0.5c0.3-0.4,0.6-0.8,0.9-1.2C336.4,17.3,336.8,17.9,337.1,18.5z M338.8,19.1c-0.4-1.3-1-2.4-1.8-3.5
				c0.7-0.7,1.4-1.3,2.1-1.9c1.5-1.2,3.2-2,5.1-2.6c3.1-1,5.9-1,8.4-0.2c2.5,0.8,4.1,2.4,4.8,4.6c0.7,2.2,0.2,4.5-1.5,6.8
				c-1.7,2.3-4,4-7.1,4.9c-0.2,0.1-0.6,0.2-1.2,0.3c-0.5,0.1-0.9,0.2-1.2,0.2c0-0.4,0-0.8-0.1-1.2c0-0.3-0.1-0.7-0.2-1
				c-0.6-1.8-1.8-3.3-3.7-4.6C341.5,20.2,340.3,19.6,338.8,19.1z M338.3,28.8c0.7-1.8,1-3.7,1.1-5.5l0-0.1c0.1,0.1,0.2,0.1,0.3,0.2
				c1.7,1.4,2.8,3.1,3.4,5l0,0.1C341.4,28.7,339.8,28.8,338.3,28.8z M330.5,28c0.4-0.6,0.7-1.3,1-2c0.8-1.9,1.1-3.7,2.2-5.6
				c1.7,0.4,3.3,1.1,4.7,2c0,0.5,0.1,1,0,1.5c0,1.7-0.4,3.3-1,4.9C334.9,28.8,332.7,28.5,330.5,28z M288.2,19.9
				c-3.6,0.3-7.5,1.3-11.6,2.8c-0.5-2.9-0.3-5.6,0.3-8.3c0.7-2.7,1.9-5.1,3.6-7.2c2.6-3.2,5.6-5.1,9.1-5.9c3.5-0.8,6.5-0.3,8.9,1.7
				c2.3,1.8,3.4,4.4,3.4,7.7c0,3.2-1.2,6.6-3.6,10C295.2,19.8,291.8,19.5,288.2,19.9z M261,36.1c0-0.9,0.4-1.9,1.3-3
				c1.2-1.5,3-2.9,5.4-4.3c2.4-1.4,5.2-2.6,8.4-3.5c0.4,1.6,0.9,3.1,1.4,4.2c0.5,1.2,0.9,1.9,1.2,2.2c0.1,0.1,0.2,0.2,0.3,0.2
				c0.1,0,0.2,0,0.2,0c0.1-0.1-0.2-0.9-0.8-2.4c-0.6-1.5-1.1-3-1.4-4.4c3.6-1,6.9-1.5,9.9-1.6c3.1-0.1,5.8,0.4,8.1,1.3
				c-2.4,3-5.2,5.6-8.1,7.8c-3,2.2-6.2,3.9-9.7,5.1c-3.4,1.3-6.5,2-9.2,2.1c-2.7,0.1-4.7-0.3-5.9-1.3C261.4,37.8,261,37,261,36.1z"
				/>
		</g>
		<g>
			<path class="st1" d="M272,32.5c-1.3-1.6-3.2-3.2-5.7-4.9c-2.5-1.7-5.3-3.1-8.4-4.5c0.5-3.1,0.5-6-0.3-8.7c-0.7-2.7-2-5.3-3.9-7.7
				c-2.9-3.6-6.3-5.7-10.3-6.5c-4-0.7-7.5,0.1-10.5,2.6c-2.7,2.2-4.1,5-4.3,8.4c-0.2,3.4,1,7,3.5,10.7c-0.2,0.2-0.5,0.3-0.7,0.5
				c-0.2,0.2-0.5,0.4-0.8,0.6c-1.8,1.5-2.8,3.2-3.1,5.2c-0.3,2,0.3,3.9,1.7,5.6c1.4,1.8,3.4,3.2,6,4.2c2.6,1,5.9,1.8,9.9,2.2
				c-12.8,2.6-22.7,3.3-29.6,2.3c-7-1-12.4-3.9-16.2-8.6c-1-1.3-1.9-2.6-2.5-3.9c2.4-0.2,4.7-0.6,6.8-1.2c0.4,0.6,0.8,1.2,1.3,1.8
				c2.4,3,5.3,4.8,8.7,5.5c3.4,0.7,6.2,0,8.6-1.9c2.2-1.8,3.3-4.3,3.3-7.4c-0.1-3.1-1.3-6.2-3.6-9.1c-3.1-3.8-6.9-6.1-11.5-6.9
				c-4.6-0.8-8.5,0.1-11.7,2.7c-0.5,0.4-1,0.9-1.5,1.4c-0.6-0.6-1.3-1.2-2-1.8c-1.7-1.3-3.5-2.2-5.6-2.8c-3.6-1.1-6.9-1.1-9.8,0
				c-3,1.2-4.9,3.2-5.8,6c-0.9,2.7-0.4,5.2,1.3,7.5c1.7,2.3,4.4,4.1,8.1,5.2c0.5,0.2,1.1,0.3,1.8,0.5c0.7,0.2,1.4,0.3,2.3,0.5
				c0.2,0.5,0.4,1.1,0.7,1.6c0.3,0.5,0.8,1,1.2,1.5c-2-0.1-4-0.1-5.8,0.1c-0.3,0-0.6-0.1-0.9-0.1c-4.9-0.7-8.7-2.2-13-4.8
				c-3.6-2.2-9.7-6.7-18.2-13.4c2,0.5,12,2.9,13.9-1.8c0.3-0.7,0.4-1.7-0.1-2.3c-0.4-0.5-1.8-0.7-2.5-0.1c-1,1-0.4,2.1,0.5,2.5
				c0.6,0.3,1,0.1,0.9,0.2c-2.9,1.6-8.5,2.4-13,1.3c-7.2-5.5-21.6-16.4-35.6-9.7c18.3,0.8,26.9,5.7,36.2,12.8
				c5.6,4.3,9.7,7.2,12.3,8.7c2.4,1.4,4.8,2.6,7.3,3.7c2.5,1,5,1.9,7.6,2.6c-7.9-1.1-17-1.8-24.6-4.4c-5.7-1.9-9-3.9-9.9-5.9
				c-0.3-0.7-0.2-1.2,0.5-1.5c0.6-0.3,1.6-0.4,2.9-0.2c1.6,0.2,3.1,0.8,4.6,1.6c1,0.6,3.8,2.2,2.8,3.8c7.7-4-12.7-9.7-13-3.5
				c-0.6,11.5,34,10.3,39.7,10.8c-2.7,0.4-5.2,1.2-7.4,2.3c-4,2-6.6,5-7.8,8.9c-0.9,2.9-0.7,5.4,0.6,7.6c1.3,2.2,3.5,3.8,6.7,4.8
				l0.3,0.1c-0.3,2.2-0.4,3.8-0.4,4.8c0,1,0.2,1.5,0.4,1.6c0,0,0.1,0,0.2-0.1c0.1-0.1,0.1-0.2,0.2-0.3c0-0.1,0.1-0.8,0.2-2
				c0.1-1.3,0.3-2.5,0.5-3.7c4.7,0.8,9,0.3,12.8-1.7c3.9-2,6.4-4.8,7.6-8.6c0.5-1.5,0.4-2.9-0.3-4.1c-0.6-1.3-1.7-2.1-3.2-2.6
				c-3.2-1-6.5-0.2-9.9,2.4c-3.4,2.6-5.9,6.3-7.4,11.2c-0.1,0.2-0.2,0.6-0.3,1c-0.1,0.4-0.2,0.7-0.2,0.9c-1.7-0.7-2.9-2-3.5-3.7
				c-0.6-1.7-0.7-3.6,0-5.6c0.8-2.4,2.1-4.6,3.9-6.5c1.8-1.9,4-3.4,6.6-4.4c1.7-0.7,3.4-1.2,5.2-1.4c1.8-0.2,3.2-0.2,4.1,0.1
				c0.3,0.1,0.8,0.4,1.6,0.8c0.8,0.5,1.5,0.8,2.1,1c0.5,0.1,0.9,0.2,1.2,0.1c0.3-0.1,0.5-0.3,0.6-0.6c0.1-0.3,0-0.6-0.2-0.9
				c-0.2-0.3-0.6-0.5-1.2-0.7c-0.2-0.1-0.5-0.1-0.9-0.2c-0.4-0.1-0.7-0.2-0.9-0.2c-1.1-0.4-1.9-0.8-2.4-1.3
				c-0.4-0.5-0.6-1.2-0.6-2.1c2,0,3.9,0,5.7-0.2c0.8,1.8,1.9,3.6,3.4,5.3c4,5,9.2,8.4,15.4,10.3c6.3,1.9,12.9,2,19.9,0.3
				c1.7-0.4,4.3-1.1,7.7-2.1c3.5-1,6-1.7,7.7-2c0.6-0.1,1.4-0.2,2.3-0.3c0.9-0.1,1.5-0.2,1.7-0.4c0.1-0.1,0.1-0.1,0.1-0.2
				c0-0.1,0-0.2-0.1-0.2c-0.3-0.4-1.8-0.7-4.3-1c-0.9-0.1-1.7-0.2-2.2-0.2c-5.7-0.7-9.6-1.4-11.9-2.2c-2.2-0.8-3.9-1.8-5-3.2
				c-0.8-1-1.1-2-0.9-3.1c0.3-1,1-2.1,2.4-3.2c0.5-0.4,0.9-0.7,1.5-1c0.5-0.3,1.1-0.6,1.7-0.9c2.3,2.3,4.8,4.4,7.5,6.2
				c2.7,1.8,5.7,3.4,9.1,4.9c4.6,2,8.7,3.1,12.2,3.5c3.5,0.3,6.1-0.1,7.8-1.5C274.3,37.3,273.5,34.3,272,32.5z M176.1,54.7
				c0.6-1.8,1.5-3.6,2.8-5.4c1.3-1.8,2.8-3.4,4.6-4.7c1.7-1.3,3.3-2.2,5-2.7c1.6-0.5,3-0.6,4.2-0.2c1.1,0.3,1.8,1,2.2,1.9
				c0.4,0.9,0.4,2,0,3.3c-0.6,1.9-1.8,3.6-3.5,5.2c-1.8,1.6-3.8,2.8-6.2,3.7c-1.6,0.6-3.1,0.9-4.6,1c-1.5,0.1-2.9-0.1-4.2-0.5
				l-0.6-0.2L176.1,54.7z M200.9,20c1.9-0.6,3.8-1,5.5-1.2c1.7-0.2,3.1-0.1,4.2,0.3c0.9,0.3,1.6,0.7,1.9,1.2
				c0.4,0.5,0.5,1.1,0.2,1.8c-0.7,2.1-3.2,3.9-7.7,5.3c-0.4,0.1-0.7,0.2-1.1,0.3C202.7,25.2,202.1,22.6,200.9,20z M198.8,15.7
				c1.2-1,2.7-1.7,4.4-2c1.7-0.3,3.5-0.3,5.5,0c2.3,0.4,4.5,1.3,6.6,2.5c2.1,1.3,4,2.8,5.5,4.7c1.9,2.3,2.8,4.6,2.8,6.9
				c0,2.3-0.8,4.2-2.6,5.6c-2,1.7-4.6,2.2-7.6,1.6c-3-0.6-5.6-2.2-7.7-4.8c-0.4-0.5-0.8-1.1-1.2-1.7c0.5-0.1,0.9-0.3,1.4-0.5
				c4.6-1.6,7.2-3.5,7.9-5.6c0.3-0.9,0.1-1.8-0.4-2.5c-0.6-0.8-1.5-1.3-2.8-1.8c-1.3-0.4-2.9-0.7-4.8-0.8c-1.9-0.1-4,0-6.2,0.3
				c-0.4-0.6-0.8-1.1-1.2-1.6C198.5,16,198.6,15.8,198.8,15.7z M197.6,16.8c0.3,0.4,0.6,0.8,0.9,1.2c-0.7,0.1-1.4,0.3-2,0.5
				C196.8,17.9,197.2,17.3,197.6,16.8z M191,20.9c-1.9,1.3-3.2,2.8-3.7,4.6c-0.1,0.3-0.2,0.6-0.2,1c0,0.3-0.1,0.7-0.1,1.2
				c-0.2,0-0.6-0.1-1.2-0.2c-0.6-0.1-0.9-0.2-1.2-0.3c-3-0.9-5.4-2.6-7.1-4.9c-1.7-2.3-2.2-4.6-1.5-6.8c0.7-2.2,2.3-3.7,4.8-4.6
				c2.5-0.8,5.3-0.8,8.4,0.2c1.9,0.6,3.6,1.5,5.1,2.6c0.7,0.6,1.5,1.2,2.1,1.9c-0.8,1.1-1.4,2.2-1.8,3.5
				C193.3,19.6,192.1,20.2,191,20.9z M190.5,28.5l0-0.1c0.6-1.9,1.7-3.5,3.4-5c0.1-0.1,0.2-0.1,0.3-0.2l0,0.1c0,1.8,0.4,3.7,1.1,5.5
				C193.8,28.8,192.2,28.7,190.5,28.5z M196.3,28.8c-0.6-1.6-1-3.3-1-4.9c0-0.5,0-1,0-1.5c1.4-0.9,2.9-1.6,4.7-2
				c1,1.9,1.4,3.7,2.2,5.6c0.3,0.7,0.6,1.4,1,2C200.9,28.5,198.7,28.8,196.3,28.8z M235.2,20.6c-2.4-3.4-3.6-6.8-3.6-10
				c0-3.3,1.1-5.8,3.4-7.7c2.4-1.9,5.4-2.5,8.9-1.7c3.5,0.8,6.6,2.8,9.1,5.9c1.7,2.1,2.9,4.5,3.6,7.2c0.7,2.7,0.8,5.4,0.3,8.3
				c-4.1-1.5-8-2.4-11.6-2.8C241.8,19.5,238.4,19.8,235.2,20.6z M271.4,38.5c-1.2,1-3.2,1.4-5.9,1.3c-2.7-0.1-5.8-0.9-9.2-2.1
				c-3.5-1.3-6.7-3-9.7-5.1c-3-2.2-5.7-4.7-8.1-7.8c2.3-0.9,5-1.3,8.1-1.3c3.1,0.1,6.4,0.6,9.9,1.6c-0.3,1.5-0.8,2.9-1.4,4.4
				c-0.6,1.5-0.9,2.3-0.8,2.4c0,0.1,0.1,0.1,0.2,0c0.1,0,0.2-0.1,0.3-0.2c0.3-0.3,0.7-1,1.2-2.2c0.5-1.2,0.9-2.6,1.4-4.2
				c3.2,1,6,2.2,8.4,3.5c2.4,1.4,4.2,2.8,5.4,4.3c0.9,1.1,1.3,2,1.3,3C272.6,37,272.2,37.8,271.4,38.5z"/>
		</g>
	</g>
	<g>
		<path class="st1" d="M519.4,13.6c-35.7,0.2-71.4,0.4-107,0.6c-8.9,0.1-18,0.3-26.4,3.8"/>
		<path class="st1" d="M533.6,7c-35.7,0.2-71.4,0.4-107,0.6c-8.9,0.1-18,0.3-26.4,3.8"/>
	</g>
	<g>
		<path class="st1" d="M14.2,13.6c35.7,0.2,71.4,0.4,107,0.6c8.9,0.1,18,0.3,26.4,3.8"/>
		<path class="st1" d="M0,7c35.7,0.2,71.4,0.4,107,0.6c8.9,0.1,18,0.3,26.4,3.8"/>
	</g>
</g>
</svg>
