<svg id="圖層_1" data-name="圖層 1" xmlns="http://www.w3.org/2000/svg" viewBox="0 0 112.92 50.56"><defs><style>.cls-1{opacity:0.8;}.cls-2{fill:#313216;}</style></defs><title>mark</title><g class="cls-1"><path class="cls-2" d="M85.92,14.9c-5.76-4.1-.18-9.38,2.79-11.21a15.7,15.7,0,0,1,15.72-.38c6.35,3.67,8.8,12.19,6.14,18.85C104.33,37.72,82,33.25,69.95,29.24,51.34,23.06,23.63,9.67,8.6,30.18a0.62,0.62,0,0,0,1,.74c15.52-18.17,39.52-7,57.89-.61,12.85,4.49,33.86,9.19,42.93-4.91,6.26-9.73.35-23.68-11.24-25.25a17.56,17.56,0,0,0-15.43,5.6C80.45,9.5,79,15.52,84.9,17.36c1.55,0.48,2.2-1.62,1-2.46h0Z"/><path class="cls-2" d="M5.68,42.94Q5.61,53.33,2,41.78A10.66,10.66,0,0,1,4.86,35.2a14.5,14.5,0,0,1,6.32-4c5.45-1.76,11.19-.49,16.32,1.67,8.07,3.39,14.93,9.11,23.14,12.23,10.95,4.16,27,3.16,31.15-10,2.82-8.9-4.63-20.17-14.76-16.6-11,3.87-7.3,18.89,3.18,20.12a0.69,0.69,0,0,0,.19-1.36c-9-1.33-12.52-14-2.74-17.25,6.5-2.17,12.77,3.89,12.91,10.15C80.9,43.59,65.22,47.17,54.86,44.34c-14.71-4-29.49-21.95-46-14.48C3.72,32.19-.71,37.43.1,43.39c0.58,4.26,4.73,8.4,9.29,6.84,8.88-3,.32-14.82-4.22-7.67a0.32,0.32,0,0,0,.51.39h0Z"/></g></svg>